<?xml version="1.0" encoding="UTF-8" standalone="no"?>
<!DOCTYPE svg PUBLIC "-//W3C//DTD SVG 1.1//EN" "http://www.w3.org/Graphics/SVG/1.1/DTD/svg11.dtd">
<svg width="100%" height="100%" viewBox="0 0 30 31" version="1.1" xmlns="http://www.w3.org/2000/svg" xmlns:xlink="http://www.w3.org/1999/xlink" xml:space="preserve" xmlns:serif="http://www.serif.com/" style="fill-rule:evenodd;clip-rule:evenodd;stroke-linejoin:round;stroke-miterlimit:1.41421;">
    <g id="Artboard1" transform="matrix(0.239151,0,0,0.249594,7.69334,5.66096)">
        <rect x="-32.169" y="-22.681" width="123.867" height="121.438" style="fill:none;"/>
        <g id="Camera-Icon" serif:id="Camera Icon" transform="matrix(4.18146,0,0,4.0065,-4431.86,-10889.7)">
            <path d="M1077.5,2738L1056.5,2738C1055.67,2738 1055,2737.33 1055,2736.5L1055,2722.5C1055,2721.67 1055.67,2721 1056.5,2721L1059.35,2721C1059.91,2721 1060.38,2720.72 1060.65,2720.24L1062.07,2717.76C1062.34,2717.28 1062.82,2717 1063.37,2717L1070.63,2717C1071.18,2717 1071.66,2717.28 1071.93,2717.76L1073.35,2720.24C1073.62,2720.72 1074.09,2721 1074.65,2721L1077.5,2721C1078.33,2721 1079,2721.67 1079,2722.5L1079,2736.5C1079,2737.33 1078.33,2738 1077.5,2738ZM1067,2723C1063.69,2723 1061,2725.69 1061,2729C1061,2732.31 1063.69,2735 1067,2735C1070.31,2735 1073,2732.31 1073,2729C1073,2725.69 1070.31,2723 1067,2723ZM1067,2732C1065.34,2732 1064,2730.66 1064,2729C1064,2727.34 1065.34,2726 1067,2726C1068.66,2726 1070,2727.34 1070,2729C1070,2730.66 1068.66,2732 1067,2732Z" style="fill:rgb(58,0,214);"/>
        </g>
    </g>
</svg>
