<?xml version="1.0" encoding="UTF-8" standalone="no"?>
<!DOCTYPE svg PUBLIC "-//W3C//DTD SVG 1.1//EN" "http://www.w3.org/Graphics/SVG/1.1/DTD/svg11.dtd">
<svg width="100%" height="100%" viewBox="0 0 30 31" version="1.1" xmlns="http://www.w3.org/2000/svg" xmlns:xlink="http://www.w3.org/1999/xlink" xml:space="preserve" xmlns:serif="http://www.serif.com/" style="fill-rule:evenodd;clip-rule:evenodd;stroke-linejoin:round;stroke-miterlimit:1.41421;">
    <g id="Artboard1" transform="matrix(0.239151,0,0,0.249594,7.69334,5.66096)">
        <rect x="-32.169" y="-22.681" width="123.867" height="121.438" style="fill:none;"/>
        <g transform="matrix(0.847452,0,0,0.811992,-117.076,-190.808)">
            <path d="M222.699,253.657C224.473,254.156 225.712,255.702 225.801,257.555L225.801,306.083C225.695,308.226 223.979,309.976 221.801,310.083L144.406,310.083C141.255,309.928 139.214,305.619 141.578,303.255C142.288,302.545 142.795,302.162 144.406,302.083L217.801,302.083L217.801,263.898L195.495,274.551C194.221,275.088 193.242,275.272 191.575,274.285L173.361,262.318L154.502,274.317C154.502,274.317 152.354,275.289 150.61,274.541L128.744,263.939L128.744,306.083C128.744,306.083 126.665,311.646 122.858,309.611C121.609,308.943 120.844,308.13 120.744,306.083L120.744,257.555C120.877,254.792 123.866,252.836 126.489,253.955L152.091,266.369L171.249,254.18C171.249,254.18 173.732,253.113 175.593,254.212L194.083,266.36L220.077,253.945C220.077,253.945 221.2,253.386 222.699,253.657Z" style="fill:rgb(58,0,214);fill-rule:nonzero;"/>
        </g>
    </g>
</svg>
