<?xml version="1.0" encoding="UTF-8" standalone="no"?>
<!DOCTYPE svg PUBLIC "-//W3C//DTD SVG 1.1//EN" "http://www.w3.org/Graphics/SVG/1.1/DTD/svg11.dtd">
<svg width="100%" height="100%" viewBox="0 0 2481 1749" version="1.1" xmlns="http://www.w3.org/2000/svg" xmlns:xlink="http://www.w3.org/1999/xlink" xml:space="preserve" xmlns:serif="http://www.serif.com/" style="fill-rule:evenodd;clip-rule:evenodd;stroke-linejoin:round;stroke-miterlimit:1.41421;">
    <g id="coconut-with-straw" transform="matrix(0.325203,0,0,0.325203,382.675,872.082)">
        <g transform="matrix(1,0,0,1,-251.094,-251.094)">
            <path d="M254.11,214.188L323.595,75.25L436.438,0L454.188,26.625L348.407,97.125L289.876,214.187L254.11,214.187L254.11,214.188ZM361.282,142.907L346.844,171.813C360.156,179.407 368,188.438 368,198.188C368,221.719 322.811,241.188 263.266,245.313L234,293.188L234,245.969C232.125,245.938 230.297,245.813 228.437,245.75L195.999,348.188L195.999,243.094C147.077,236.344 111.999,218.875 111.999,198.188C111.999,171.688 169.312,150.188 239.999,150.188C243.483,150.188 246.749,150.469 250.155,150.563L265.905,119.063C257.405,118.563 248.811,118.188 239.999,118.188C133.968,118.188 47.999,154.469 47.999,278.188C47.999,401.907 133.968,502.188 239.999,502.188C346.03,502.188 431.999,401.907 431.999,278.188C432.001,208.157 404.438,166.188 361.282,142.907Z" style="fill:rgb(73,254,133);fill-rule:nonzero;"/>
        </g>
    </g>
    <g id="coconut-with-straw1" serif:id="coconut-with-straw" transform="matrix(0.325203,0,0,0.325203,1291.62,872.082)">
        <g transform="matrix(1,0,0,1,-251.094,-251.094)">
            <path d="M254.11,214.188L323.595,75.25L436.438,0L454.188,26.625L348.407,97.125L289.876,214.187L254.11,214.187L254.11,214.188ZM361.282,142.907L346.844,171.813C360.156,179.407 368,188.438 368,198.188C368,221.719 322.811,241.188 263.266,245.313L234,293.188L234,245.969C232.125,245.938 230.297,245.813 228.437,245.75L195.999,348.188L195.999,243.094C147.077,236.344 111.999,218.875 111.999,198.188C111.999,171.688 169.312,150.188 239.999,150.188C243.483,150.188 246.749,150.469 250.155,150.563L265.905,119.063C257.405,118.563 248.811,118.188 239.999,118.188C133.968,118.188 47.999,154.469 47.999,278.188C47.999,401.907 133.968,502.188 239.999,502.188C346.03,502.188 431.999,401.907 431.999,278.188C432.001,208.157 404.438,166.188 361.282,142.907Z" style="fill:rgb(73,254,133);fill-rule:nonzero;"/>
        </g>
    </g>
    <g id="coconut-with-straw2" serif:id="coconut-with-straw" transform="matrix(0.325203,0,0,0.325203,1077.82,81.6565)">
        <g transform="matrix(1,0,0,1,-251.094,-251.094)">
            <path d="M254.11,214.188L323.595,75.25L436.438,0L454.188,26.625L348.407,97.125L289.876,214.187L254.11,214.187L254.11,214.188ZM361.282,142.907L346.844,171.813C360.156,179.407 368,188.438 368,198.188C368,221.719 322.811,241.188 263.266,245.313L234,293.188L234,245.969C232.125,245.938 230.297,245.813 228.437,245.75L195.999,348.188L195.999,243.094C147.077,236.344 111.999,218.875 111.999,198.188C111.999,171.688 169.312,150.188 239.999,150.188C243.483,150.188 246.749,150.469 250.155,150.563L265.905,119.063C257.405,118.563 248.811,118.188 239.999,118.188C133.968,118.188 47.999,154.469 47.999,278.188C47.999,401.907 133.968,502.188 239.999,502.188C346.03,502.188 431.999,401.907 431.999,278.188C432.001,208.157 404.438,166.188 361.282,142.907Z" style="fill:rgb(73,254,133);fill-rule:nonzero;"/>
        </g>
    </g>
    <g id="coconut-with-straw3" serif:id="coconut-with-straw" transform="matrix(0.325203,0,0,0.325203,1986.76,81.6565)">
        <g transform="matrix(1,0,0,1,-251.094,-251.094)">
            <path d="M254.11,214.188L323.595,75.25L436.438,0L454.188,26.625L348.407,97.125L289.876,214.187L254.11,214.187L254.11,214.188ZM361.282,142.907L346.844,171.813C360.156,179.407 368,188.438 368,198.188C368,221.719 322.811,241.188 263.266,245.313L234,293.188L234,245.969C232.125,245.938 230.297,245.813 228.437,245.75L195.999,348.188L195.999,243.094C147.077,236.344 111.999,218.875 111.999,198.188C111.999,171.688 169.312,150.188 239.999,150.188C243.483,150.188 246.749,150.469 250.155,150.563L265.905,119.063C257.405,118.563 248.811,118.188 239.999,118.188C133.968,118.188 47.999,154.469 47.999,278.188C47.999,401.907 133.968,502.188 239.999,502.188C346.03,502.188 431.999,401.907 431.999,278.188C432.001,208.157 404.438,166.188 361.282,142.907Z" style="fill:rgb(73,254,133);fill-rule:nonzero;"/>
        </g>
    </g>
    <g id="coconut-with-straw4" serif:id="coconut-with-straw" transform="matrix(0.325203,0,0,0.325203,1077.82,1666.38)">
        <g transform="matrix(1,0,0,1,-251.094,-251.094)">
            <path d="M254.11,214.188L323.595,75.25L436.438,0L454.188,26.625L348.407,97.125L289.876,214.187L254.11,214.187L254.11,214.188ZM361.282,142.907L346.844,171.813C360.156,179.407 368,188.438 368,198.188C368,221.719 322.811,241.188 263.266,245.313L234,293.188L234,245.969C232.125,245.938 230.297,245.813 228.437,245.75L195.999,348.188L195.999,243.094C147.077,236.344 111.999,218.875 111.999,198.188C111.999,171.688 169.312,150.188 239.999,150.188C243.483,150.188 246.749,150.469 250.155,150.563L265.905,119.063C257.405,118.563 248.811,118.188 239.999,118.188C133.968,118.188 47.999,154.469 47.999,278.188C47.999,401.907 133.968,502.188 239.999,502.188C346.03,502.188 431.999,401.907 431.999,278.188C432.001,208.157 404.438,166.188 361.282,142.907Z" style="fill:rgb(73,254,133);fill-rule:nonzero;"/>
        </g>
    </g>
    <g id="coconut-with-straw5" serif:id="coconut-with-straw" transform="matrix(0.325203,0,0,0.325203,1986.76,1666.38)">
        <g transform="matrix(1,0,0,1,-251.094,-251.094)">
            <path d="M254.11,214.188L323.595,75.25L436.438,0L454.188,26.625L348.407,97.125L289.876,214.187L254.11,214.187L254.11,214.188ZM361.282,142.907L346.844,171.813C360.156,179.407 368,188.438 368,198.188C368,221.719 322.811,241.188 263.266,245.313L234,293.188L234,245.969C232.125,245.938 230.297,245.813 228.437,245.75L195.999,348.188L195.999,243.094C147.077,236.344 111.999,218.875 111.999,198.188C111.999,171.688 169.312,150.188 239.999,150.188C243.483,150.188 246.749,150.469 250.155,150.563L265.905,119.063C257.405,118.563 248.811,118.188 239.999,118.188C133.968,118.188 47.999,154.469 47.999,278.188C47.999,401.907 133.968,502.188 239.999,502.188C346.03,502.188 431.999,401.907 431.999,278.188C432.001,208.157 404.438,166.188 361.282,142.907Z" style="fill:rgb(73,254,133);fill-rule:nonzero;"/>
        </g>
    </g>
    <g id="dive" transform="matrix(0.319595,0,0,0.319595,572.031,1125.26)">
        <g transform="matrix(1,0,0,1,-255.5,-255.5)">
            <clipPath id="_clip1">
                <rect x="0" y="0" width="511" height="511"/>
            </clipPath>
            <g clip-path="url(#_clip1)">
                <path d="M412.818,310.892L412.818,369.586C412.818,392.95 393.808,411.96 370.44,411.96L263.793,411.96C260.651,399.691 249.501,390.595 236.265,390.595L161.497,390.595C148.089,390.595 136.826,399.932 133.856,412.447L119.972,412.447C101.166,412.447 85.867,427.745 85.867,446.552C85.867,465.355 101.166,480.654 119.972,480.654L133.856,480.654C136.826,493.168 148.089,502.509 161.497,502.509L236.265,502.509C249.501,502.509 260.651,493.41 263.793,481.141L371.395,481.141C432.381,481.141 481.995,431.527 481.995,370.541L481.995,310.892L412.818,310.892Z" style="fill:rgb(24,198,255);fill-rule:nonzero;"/>
                <path d="M481.995,44.569C481.995,25.497 466.479,9.98 447.407,9.98C428.335,9.98 412.818,25.497 412.818,44.569L412.818,158.826L481.999,158.826L481.999,44.569L481.995,44.569Z" style="fill:rgb(24,198,255);fill-rule:nonzero;"/>
                <path d="M489.715,279.371C500.904,279.36 510.003,270.252 510.003,259.059L510.003,210.662C510.003,199.461 500.892,190.35 489.691,190.35L392.689,190.35C391.075,190.35 389.574,190.837 388.323,191.672C370.066,156.487 333.29,132.393 290.99,132.393L108.585,132.393C48.16,132.393 -0.998,181.551 -0.998,241.976L-0.998,251.371C-0.998,311.796 48.16,360.954 108.585,360.954L110.245,360.954C145.275,360.954 164.152,348.619 175.43,341.25C176.939,340.264 178.241,339.414 179.158,338.88C185.735,335.063 190.249,332.724 199.785,332.724C209.325,332.724 213.84,335.063 220.417,338.88C221.313,339.398 222.581,340.225 224.046,341.184L224.144,341.246C235.419,348.619 254.296,360.954 289.329,360.954L290.99,360.954C341.738,360.954 384.537,326.276 396.943,279.371L410.171,279.371C410.179,279.371 410.183,279.367 410.19,279.367L489.715,279.367L489.715,279.371ZM354.448,251.371C354.448,286.362 325.98,314.829 290.99,314.829L289.329,314.829C268.031,314.829 258.549,308.634 249.38,302.638C247.489,301.402 245.559,300.143 243.571,298.989C233.243,292.993 220.491,286.595 199.785,286.595C179.08,286.595 166.331,292.993 156.004,298.989C154.054,300.12 152.179,301.344 150.195,302.642C141.025,308.631 131.54,314.829 110.245,314.829L108.585,314.829C73.594,314.829 45.127,286.362 45.127,251.371L45.127,241.976C45.127,206.985 73.594,178.518 108.585,178.518L290.99,178.518C325.98,178.518 354.448,206.985 354.448,241.976L354.448,251.371Z" style="fill:rgb(24,198,255);fill-rule:nonzero;"/>
                <path d="M290.99,210.042L108.585,210.042C90.978,210.042 76.651,224.366 76.651,241.976L76.651,251.371C76.651,268.981 90.978,283.305 108.585,283.305L110.245,283.305C122.156,283.305 125.54,281.094 132.955,276.249C135.197,274.783 137.512,273.274 140.179,271.726C154.362,263.492 172.534,255.075 199.785,255.075C227.037,255.075 245.212,263.492 259.399,271.726C262.105,273.297 264.596,274.927 266.6,276.237C274.035,281.094 277.415,283.305 289.329,283.305L290.99,283.305C308.596,283.305 322.923,268.981 322.923,251.371L322.923,241.976C322.923,224.366 308.6,210.042 290.99,210.042Z" style="fill:rgb(24,198,255);fill-rule:nonzero;"/>
            </g>
        </g>
    </g>
    <g id="dive1" serif:id="dive" transform="matrix(0.319595,0,0,0.319595,2241.18,1412.31)">
        <g transform="matrix(1,0,0,1,-255.5,-255.5)">
            <clipPath id="_clip2">
                <rect x="0" y="0" width="511" height="511"/>
            </clipPath>
            <g clip-path="url(#_clip2)">
                <path d="M412.818,310.892L412.818,369.586C412.818,392.95 393.808,411.96 370.44,411.96L263.793,411.96C260.651,399.691 249.501,390.595 236.265,390.595L161.497,390.595C148.089,390.595 136.826,399.932 133.856,412.447L119.972,412.447C101.166,412.447 85.867,427.745 85.867,446.552C85.867,465.355 101.166,480.654 119.972,480.654L133.856,480.654C136.826,493.168 148.089,502.509 161.497,502.509L236.265,502.509C249.501,502.509 260.651,493.41 263.793,481.141L371.395,481.141C432.381,481.141 481.995,431.527 481.995,370.541L481.995,310.892L412.818,310.892Z" style="fill:rgb(24,198,255);fill-rule:nonzero;"/>
                <path d="M481.995,44.569C481.995,25.497 466.479,9.98 447.407,9.98C428.335,9.98 412.818,25.497 412.818,44.569L412.818,158.826L481.999,158.826L481.999,44.569L481.995,44.569Z" style="fill:rgb(24,198,255);fill-rule:nonzero;"/>
                <path d="M489.715,279.371C500.904,279.36 510.003,270.252 510.003,259.059L510.003,210.662C510.003,199.461 500.892,190.35 489.691,190.35L392.689,190.35C391.075,190.35 389.574,190.837 388.323,191.672C370.066,156.487 333.29,132.393 290.99,132.393L108.585,132.393C48.16,132.393 -0.998,181.551 -0.998,241.976L-0.998,251.371C-0.998,311.796 48.16,360.954 108.585,360.954L110.245,360.954C145.275,360.954 164.152,348.619 175.43,341.25C176.939,340.264 178.241,339.414 179.158,338.88C185.735,335.063 190.249,332.724 199.785,332.724C209.325,332.724 213.84,335.063 220.417,338.88C221.313,339.398 222.581,340.225 224.046,341.184L224.144,341.246C235.419,348.619 254.296,360.954 289.329,360.954L290.99,360.954C341.738,360.954 384.537,326.276 396.943,279.371L410.171,279.371C410.179,279.371 410.183,279.367 410.19,279.367L489.715,279.367L489.715,279.371ZM354.448,251.371C354.448,286.362 325.98,314.829 290.99,314.829L289.329,314.829C268.031,314.829 258.549,308.634 249.38,302.638C247.489,301.402 245.559,300.143 243.571,298.989C233.243,292.993 220.491,286.595 199.785,286.595C179.08,286.595 166.331,292.993 156.004,298.989C154.054,300.12 152.179,301.344 150.195,302.642C141.025,308.631 131.54,314.829 110.245,314.829L108.585,314.829C73.594,314.829 45.127,286.362 45.127,251.371L45.127,241.976C45.127,206.985 73.594,178.518 108.585,178.518L290.99,178.518C325.98,178.518 354.448,206.985 354.448,241.976L354.448,251.371Z" style="fill:rgb(24,198,255);fill-rule:nonzero;"/>
                <path d="M290.99,210.042L108.585,210.042C90.978,210.042 76.651,224.366 76.651,241.976L76.651,251.371C76.651,268.981 90.978,283.305 108.585,283.305L110.245,283.305C122.156,283.305 125.54,281.094 132.955,276.249C135.197,274.783 137.512,273.274 140.179,271.726C154.362,263.492 172.534,255.075 199.785,255.075C227.037,255.075 245.212,263.492 259.399,271.726C262.105,273.297 264.596,274.927 266.6,276.237C274.035,281.094 277.415,283.305 289.329,283.305L290.99,283.305C308.596,283.305 322.923,268.981 322.923,251.371L322.923,241.976C322.923,224.366 308.6,210.042 290.99,210.042Z" style="fill:rgb(24,198,255);fill-rule:nonzero;"/>
            </g>
        </g>
    </g>
    <g id="dive2" serif:id="dive" transform="matrix(0.319595,0,0,0.319595,1480.97,1125.26)">
        <g transform="matrix(1,0,0,1,-255.5,-255.5)">
            <clipPath id="_clip3">
                <rect x="0" y="0" width="511" height="511"/>
            </clipPath>
            <g clip-path="url(#_clip3)">
                <path d="M412.818,310.892L412.818,369.586C412.818,392.95 393.808,411.96 370.44,411.96L263.793,411.96C260.651,399.691 249.501,390.595 236.265,390.595L161.497,390.595C148.089,390.595 136.826,399.932 133.856,412.447L119.972,412.447C101.166,412.447 85.867,427.745 85.867,446.552C85.867,465.355 101.166,480.654 119.972,480.654L133.856,480.654C136.826,493.168 148.089,502.509 161.497,502.509L236.265,502.509C249.501,502.509 260.651,493.41 263.793,481.141L371.395,481.141C432.381,481.141 481.995,431.527 481.995,370.541L481.995,310.892L412.818,310.892Z" style="fill:rgb(24,198,255);fill-rule:nonzero;"/>
                <path d="M481.995,44.569C481.995,25.497 466.479,9.98 447.407,9.98C428.335,9.98 412.818,25.497 412.818,44.569L412.818,158.826L481.999,158.826L481.999,44.569L481.995,44.569Z" style="fill:rgb(24,198,255);fill-rule:nonzero;"/>
                <path d="M489.715,279.371C500.904,279.36 510.003,270.252 510.003,259.059L510.003,210.662C510.003,199.461 500.892,190.35 489.691,190.35L392.689,190.35C391.075,190.35 389.574,190.837 388.323,191.672C370.066,156.487 333.29,132.393 290.99,132.393L108.585,132.393C48.16,132.393 -0.998,181.551 -0.998,241.976L-0.998,251.371C-0.998,311.796 48.16,360.954 108.585,360.954L110.245,360.954C145.275,360.954 164.152,348.619 175.43,341.25C176.939,340.264 178.241,339.414 179.158,338.88C185.735,335.063 190.249,332.724 199.785,332.724C209.325,332.724 213.84,335.063 220.417,338.88C221.313,339.398 222.581,340.225 224.046,341.184L224.144,341.246C235.419,348.619 254.296,360.954 289.329,360.954L290.99,360.954C341.738,360.954 384.537,326.276 396.943,279.371L410.171,279.371C410.179,279.371 410.183,279.367 410.19,279.367L489.715,279.367L489.715,279.371ZM354.448,251.371C354.448,286.362 325.98,314.829 290.99,314.829L289.329,314.829C268.031,314.829 258.549,308.634 249.38,302.638C247.489,301.402 245.559,300.143 243.571,298.989C233.243,292.993 220.491,286.595 199.785,286.595C179.08,286.595 166.331,292.993 156.004,298.989C154.054,300.12 152.179,301.344 150.195,302.642C141.025,308.631 131.54,314.829 110.245,314.829L108.585,314.829C73.594,314.829 45.127,286.362 45.127,251.371L45.127,241.976C45.127,206.985 73.594,178.518 108.585,178.518L290.99,178.518C325.98,178.518 354.448,206.985 354.448,241.976L354.448,251.371Z" style="fill:rgb(24,198,255);fill-rule:nonzero;"/>
                <path d="M290.99,210.042L108.585,210.042C90.978,210.042 76.651,224.366 76.651,241.976L76.651,251.371C76.651,268.981 90.978,283.305 108.585,283.305L110.245,283.305C122.156,283.305 125.54,281.094 132.955,276.249C135.197,274.783 137.512,273.274 140.179,271.726C154.362,263.492 172.534,255.075 199.785,255.075C227.037,255.075 245.212,263.492 259.399,271.726C262.105,273.297 264.596,274.927 266.6,276.237C274.035,281.094 277.415,283.305 289.329,283.305L290.99,283.305C308.596,283.305 322.923,268.981 322.923,251.371L322.923,241.976C322.923,224.366 308.6,210.042 290.99,210.042Z" style="fill:rgb(24,198,255);fill-rule:nonzero;"/>
            </g>
        </g>
    </g>
    <g id="icon--1-" serif:id="icon (1)" transform="matrix(4.0782,0,0,4.0782,573.512,581.665)">
        <g transform="matrix(1,0,0,1,-19.6595,-19.6595)">
            <g>
                <g id="b9_watermelon">
                    <path d="M32.58,0.001L31.143,1.439C39.331,9.629 39.335,22.954 31.143,31.145C22.954,39.333 9.629,39.333 1.438,31.145L0,32.582C4.493,37.071 10.394,39.317 16.29,39.317C22.19,39.317 28.091,37.071 32.58,32.582C41.565,23.597 41.565,8.984 32.58,0.001Z" style="fill:rgb(255,0,0);fill-rule:nonzero;"/>
                    <path d="M29.988,29.999C37.476,22.513 37.476,10.37 29.988,2.881L2.87,29.999C10.357,37.489 22.499,37.489 29.988,29.999ZM30.236,8.821C30.996,8.821 31.613,9.43 31.613,9.43C31.613,9.43 30.996,10.039 30.236,10.039C29.475,10.039 28.858,9.43 28.858,9.43C28.858,9.43 29.476,8.821 30.236,8.821ZM25.873,21.158C25.873,21.158 26.498,21.76 26.519,22.518C26.54,23.279 25.946,23.911 25.946,23.911C25.946,23.911 25.323,23.311 25.3,22.55C25.28,21.793 25.873,21.158 25.873,21.158ZM28.253,16.881C28.253,16.881 27.561,17.4 26.806,17.294C26.053,17.189 25.527,16.5 25.527,16.5C25.527,16.5 26.225,15.983 26.975,16.088C27.725,16.193 28.253,16.881 28.253,16.881ZM23.512,24.514C23.512,24.514 23.2,25.32 22.508,25.635C21.814,25.947 21.001,25.648 21.001,25.648C21.001,25.648 21.313,24.839 22.005,24.527C22.697,24.212 23.512,24.514 23.512,24.514ZM21.038,19.15C21.038,19.15 21.646,19.766 21.646,20.526C21.646,21.285 21.038,21.902 21.038,21.902C21.038,21.902 20.43,21.285 20.43,20.526C20.43,19.767 21.038,19.15 21.038,19.15ZM21.771,14.611C21.771,14.611 22.636,14.545 23.215,15.035C23.794,15.526 23.875,16.391 23.875,16.391C23.875,16.391 23.01,16.457 22.428,15.966C21.851,15.474 21.771,14.611 21.771,14.611ZM16.162,19.781C16.162,19.781 16.771,20.398 16.771,21.158C16.771,21.919 16.162,22.536 16.162,22.536C16.162,22.536 15.556,21.919 15.556,21.158C15.556,20.398 16.162,19.781 16.162,19.781ZM16.514,25.956C17.135,26.395 17.291,27.246 17.291,27.246C17.291,27.246 16.436,27.39 15.812,26.954C15.188,26.515 15.039,25.661 15.039,25.661C15.039,25.661 15.893,25.521 16.514,25.956ZM10.646,29.679C10.054,29.204 9.958,28.343 9.958,28.343C9.958,28.343 10.82,28.256 11.412,28.736C12,29.215 12.098,30.074 12.098,30.074C12.098,30.074 11.232,30.16 10.646,29.679Z" style="fill:rgb(255,0,0);fill-rule:nonzero;"/>
                </g>
            </g>
        </g>
    </g>
    <g id="icon--1-1" serif:id="icon (1)" transform="matrix(4.0782,0,0,4.0782,2242.66,874.016)">
        <g transform="matrix(1,0,0,1,-19.6595,-19.6595)">
            <g>
                <g id="b9_watermelon1" serif:id="b9_watermelon">
                    <path d="M32.58,0.001L31.143,1.439C39.331,9.629 39.335,22.954 31.143,31.145C22.954,39.333 9.629,39.333 1.438,31.145L0,32.582C4.493,37.071 10.394,39.317 16.29,39.317C22.19,39.317 28.091,37.071 32.58,32.582C41.565,23.597 41.565,8.984 32.58,0.001Z" style="fill:rgb(255,0,0);fill-rule:nonzero;"/>
                    <path d="M29.988,29.999C37.476,22.513 37.476,10.37 29.988,2.881L2.87,29.999C10.357,37.489 22.499,37.489 29.988,29.999ZM30.236,8.821C30.996,8.821 31.613,9.43 31.613,9.43C31.613,9.43 30.996,10.039 30.236,10.039C29.475,10.039 28.858,9.43 28.858,9.43C28.858,9.43 29.476,8.821 30.236,8.821ZM25.873,21.158C25.873,21.158 26.498,21.76 26.519,22.518C26.54,23.279 25.946,23.911 25.946,23.911C25.946,23.911 25.323,23.311 25.3,22.55C25.28,21.793 25.873,21.158 25.873,21.158ZM28.253,16.881C28.253,16.881 27.561,17.4 26.806,17.294C26.053,17.189 25.527,16.5 25.527,16.5C25.527,16.5 26.225,15.983 26.975,16.088C27.725,16.193 28.253,16.881 28.253,16.881ZM23.512,24.514C23.512,24.514 23.2,25.32 22.508,25.635C21.814,25.947 21.001,25.648 21.001,25.648C21.001,25.648 21.313,24.839 22.005,24.527C22.697,24.212 23.512,24.514 23.512,24.514ZM21.038,19.15C21.038,19.15 21.646,19.766 21.646,20.526C21.646,21.285 21.038,21.902 21.038,21.902C21.038,21.902 20.43,21.285 20.43,20.526C20.43,19.767 21.038,19.15 21.038,19.15ZM21.771,14.611C21.771,14.611 22.636,14.545 23.215,15.035C23.794,15.526 23.875,16.391 23.875,16.391C23.875,16.391 23.01,16.457 22.428,15.966C21.851,15.474 21.771,14.611 21.771,14.611ZM16.162,19.781C16.162,19.781 16.771,20.398 16.771,21.158C16.771,21.919 16.162,22.536 16.162,22.536C16.162,22.536 15.556,21.919 15.556,21.158C15.556,20.398 16.162,19.781 16.162,19.781ZM16.514,25.956C17.135,26.395 17.291,27.246 17.291,27.246C17.291,27.246 16.436,27.39 15.812,26.954C15.188,26.515 15.039,25.661 15.039,25.661C15.039,25.661 15.893,25.521 16.514,25.956ZM10.646,29.679C10.054,29.204 9.958,28.343 9.958,28.343C9.958,28.343 10.82,28.256 11.412,28.736C12,29.215 12.098,30.074 12.098,30.074C12.098,30.074 11.232,30.16 10.646,29.679Z" style="fill:rgb(255,0,0);fill-rule:nonzero;"/>
                </g>
            </g>
        </g>
    </g>
    <g id="icon--1-2" serif:id="icon (1)" transform="matrix(4.0782,0,0,4.0782,1482.45,581.665)">
        <g transform="matrix(1,0,0,1,-19.6595,-19.6595)">
            <g>
                <g id="b9_watermelon2" serif:id="b9_watermelon">
                    <path d="M32.58,0.001L31.143,1.439C39.331,9.629 39.335,22.954 31.143,31.145C22.954,39.333 9.629,39.333 1.438,31.145L0,32.582C4.493,37.071 10.394,39.317 16.29,39.317C22.19,39.317 28.091,37.071 32.58,32.582C41.565,23.597 41.565,8.984 32.58,0.001Z" style="fill:rgb(255,0,0);fill-rule:nonzero;"/>
                    <path d="M29.988,29.999C37.476,22.513 37.476,10.37 29.988,2.881L2.87,29.999C10.357,37.489 22.499,37.489 29.988,29.999ZM30.236,8.821C30.996,8.821 31.613,9.43 31.613,9.43C31.613,9.43 30.996,10.039 30.236,10.039C29.475,10.039 28.858,9.43 28.858,9.43C28.858,9.43 29.476,8.821 30.236,8.821ZM25.873,21.158C25.873,21.158 26.498,21.76 26.519,22.518C26.54,23.279 25.946,23.911 25.946,23.911C25.946,23.911 25.323,23.311 25.3,22.55C25.28,21.793 25.873,21.158 25.873,21.158ZM28.253,16.881C28.253,16.881 27.561,17.4 26.806,17.294C26.053,17.189 25.527,16.5 25.527,16.5C25.527,16.5 26.225,15.983 26.975,16.088C27.725,16.193 28.253,16.881 28.253,16.881ZM23.512,24.514C23.512,24.514 23.2,25.32 22.508,25.635C21.814,25.947 21.001,25.648 21.001,25.648C21.001,25.648 21.313,24.839 22.005,24.527C22.697,24.212 23.512,24.514 23.512,24.514ZM21.038,19.15C21.038,19.15 21.646,19.766 21.646,20.526C21.646,21.285 21.038,21.902 21.038,21.902C21.038,21.902 20.43,21.285 20.43,20.526C20.43,19.767 21.038,19.15 21.038,19.15ZM21.771,14.611C21.771,14.611 22.636,14.545 23.215,15.035C23.794,15.526 23.875,16.391 23.875,16.391C23.875,16.391 23.01,16.457 22.428,15.966C21.851,15.474 21.771,14.611 21.771,14.611ZM16.162,19.781C16.162,19.781 16.771,20.398 16.771,21.158C16.771,21.919 16.162,22.536 16.162,22.536C16.162,22.536 15.556,21.919 15.556,21.158C15.556,20.398 16.162,19.781 16.162,19.781ZM16.514,25.956C17.135,26.395 17.291,27.246 17.291,27.246C17.291,27.246 16.436,27.39 15.812,26.954C15.188,26.515 15.039,25.661 15.039,25.661C15.039,25.661 15.893,25.521 16.514,25.956ZM10.646,29.679C10.054,29.204 9.958,28.343 9.958,28.343C9.958,28.343 10.82,28.256 11.412,28.736C12,29.215 12.098,30.074 12.098,30.074C12.098,30.074 11.232,30.16 10.646,29.679Z" style="fill:rgb(255,0,0);fill-rule:nonzero;"/>
                </g>
            </g>
        </g>
    </g>
    <g id="icon--1-3" serif:id="icon (1)" transform="matrix(4.0782,0,0,4.0782,381.194,1410.83)">
        <g transform="matrix(1,0,0,1,-19.6595,-19.6595)">
            <g>
                <g id="b9_watermelon3" serif:id="b9_watermelon">
                    <path d="M32.58,0.001L31.143,1.439C39.331,9.629 39.335,22.954 31.143,31.145C22.954,39.333 9.629,39.333 1.438,31.145L0,32.582C4.493,37.071 10.394,39.317 16.29,39.317C22.19,39.317 28.091,37.071 32.58,32.582C41.565,23.597 41.565,8.984 32.58,0.001Z" style="fill:rgb(255,0,0);fill-rule:nonzero;"/>
                    <path d="M29.988,29.999C37.476,22.513 37.476,10.37 29.988,2.881L2.87,29.999C10.357,37.489 22.499,37.489 29.988,29.999ZM30.236,8.821C30.996,8.821 31.613,9.43 31.613,9.43C31.613,9.43 30.996,10.039 30.236,10.039C29.475,10.039 28.858,9.43 28.858,9.43C28.858,9.43 29.476,8.821 30.236,8.821ZM25.873,21.158C25.873,21.158 26.498,21.76 26.519,22.518C26.54,23.279 25.946,23.911 25.946,23.911C25.946,23.911 25.323,23.311 25.3,22.55C25.28,21.793 25.873,21.158 25.873,21.158ZM28.253,16.881C28.253,16.881 27.561,17.4 26.806,17.294C26.053,17.189 25.527,16.5 25.527,16.5C25.527,16.5 26.225,15.983 26.975,16.088C27.725,16.193 28.253,16.881 28.253,16.881ZM23.512,24.514C23.512,24.514 23.2,25.32 22.508,25.635C21.814,25.947 21.001,25.648 21.001,25.648C21.001,25.648 21.313,24.839 22.005,24.527C22.697,24.212 23.512,24.514 23.512,24.514ZM21.038,19.15C21.038,19.15 21.646,19.766 21.646,20.526C21.646,21.285 21.038,21.902 21.038,21.902C21.038,21.902 20.43,21.285 20.43,20.526C20.43,19.767 21.038,19.15 21.038,19.15ZM21.771,14.611C21.771,14.611 22.636,14.545 23.215,15.035C23.794,15.526 23.875,16.391 23.875,16.391C23.875,16.391 23.01,16.457 22.428,15.966C21.851,15.474 21.771,14.611 21.771,14.611ZM16.162,19.781C16.162,19.781 16.771,20.398 16.771,21.158C16.771,21.919 16.162,22.536 16.162,22.536C16.162,22.536 15.556,21.919 15.556,21.158C15.556,20.398 16.162,19.781 16.162,19.781ZM16.514,25.956C17.135,26.395 17.291,27.246 17.291,27.246C17.291,27.246 16.436,27.39 15.812,26.954C15.188,26.515 15.039,25.661 15.039,25.661C15.039,25.661 15.893,25.521 16.514,25.956ZM10.646,29.679C10.054,29.204 9.958,28.343 9.958,28.343C9.958,28.343 10.82,28.256 11.412,28.736C12,29.215 12.098,30.074 12.098,30.074C12.098,30.074 11.232,30.16 10.646,29.679Z" style="fill:rgb(255,0,0);fill-rule:nonzero;"/>
                </g>
            </g>
        </g>
    </g>
    <g id="icon--1-4" serif:id="icon (1)" transform="matrix(4.0782,0,0,4.0782,1290.14,1410.83)">
        <g transform="matrix(1,0,0,1,-19.6595,-19.6595)">
            <g>
                <g id="b9_watermelon4" serif:id="b9_watermelon">
                    <path d="M32.58,0.001L31.143,1.439C39.331,9.629 39.335,22.954 31.143,31.145C22.954,39.333 9.629,39.333 1.438,31.145L0,32.582C4.493,37.071 10.394,39.317 16.29,39.317C22.19,39.317 28.091,37.071 32.58,32.582C41.565,23.597 41.565,8.984 32.58,0.001Z" style="fill:rgb(255,0,0);fill-rule:nonzero;"/>
                    <path d="M29.988,29.999C37.476,22.513 37.476,10.37 29.988,2.881L2.87,29.999C10.357,37.489 22.499,37.489 29.988,29.999ZM30.236,8.821C30.996,8.821 31.613,9.43 31.613,9.43C31.613,9.43 30.996,10.039 30.236,10.039C29.475,10.039 28.858,9.43 28.858,9.43C28.858,9.43 29.476,8.821 30.236,8.821ZM25.873,21.158C25.873,21.158 26.498,21.76 26.519,22.518C26.54,23.279 25.946,23.911 25.946,23.911C25.946,23.911 25.323,23.311 25.3,22.55C25.28,21.793 25.873,21.158 25.873,21.158ZM28.253,16.881C28.253,16.881 27.561,17.4 26.806,17.294C26.053,17.189 25.527,16.5 25.527,16.5C25.527,16.5 26.225,15.983 26.975,16.088C27.725,16.193 28.253,16.881 28.253,16.881ZM23.512,24.514C23.512,24.514 23.2,25.32 22.508,25.635C21.814,25.947 21.001,25.648 21.001,25.648C21.001,25.648 21.313,24.839 22.005,24.527C22.697,24.212 23.512,24.514 23.512,24.514ZM21.038,19.15C21.038,19.15 21.646,19.766 21.646,20.526C21.646,21.285 21.038,21.902 21.038,21.902C21.038,21.902 20.43,21.285 20.43,20.526C20.43,19.767 21.038,19.15 21.038,19.15ZM21.771,14.611C21.771,14.611 22.636,14.545 23.215,15.035C23.794,15.526 23.875,16.391 23.875,16.391C23.875,16.391 23.01,16.457 22.428,15.966C21.851,15.474 21.771,14.611 21.771,14.611ZM16.162,19.781C16.162,19.781 16.771,20.398 16.771,21.158C16.771,21.919 16.162,22.536 16.162,22.536C16.162,22.536 15.556,21.919 15.556,21.158C15.556,20.398 16.162,19.781 16.162,19.781ZM16.514,25.956C17.135,26.395 17.291,27.246 17.291,27.246C17.291,27.246 16.436,27.39 15.812,26.954C15.188,26.515 15.039,25.661 15.039,25.661C15.039,25.661 15.893,25.521 16.514,25.956ZM10.646,29.679C10.054,29.204 9.958,28.343 9.958,28.343C9.958,28.343 10.82,28.256 11.412,28.736C12,29.215 12.098,30.074 12.098,30.074C12.098,30.074 11.232,30.16 10.646,29.679Z" style="fill:rgb(255,0,0);fill-rule:nonzero;"/>
                </g>
            </g>
        </g>
    </g>
    <g id="icon" transform="matrix(8.25355,0,0,8.25355,166.888,580.184)">
        <g transform="matrix(1,0,0,1,-9.8935,-9.8935)">
            <g>
                <path d="M5.594,5.087C2.216,6.582 0,9.759 0,9.759C0.018,9.78 1.679,11.439 3.054,10.938L3.1,11.278C2.927,11.341 2.75,11.369 2.57,11.369C1.62,11.369 0.628,10.824 0.115,10.346C0.841,11.253 2.803,13.486 5.353,14.698C7.256,11.453 5.891,6.137 5.594,5.087ZM3.513,9.894C2.945,9.894 2.483,9.432 2.483,8.864C2.483,8.295 2.945,7.834 3.513,7.834C4.082,7.834 4.544,8.294 4.544,8.864C4.544,9.432 4.082,9.894 3.513,9.894Z" style="fill:rgb(250,42,255);fill-rule:nonzero;"/>
                <path d="M16.794,8.713C15.803,7.621 14.153,6.065 12.155,5.147C14.186,4.25 18.191,5.868 14.532,3.608C11.017,1.437 8.168,3.825 7.416,4.563C7,4.656 6.593,4.78 6.2,4.936C6.492,5.926 7.96,11.392 5.955,14.858C6.73,15.188 7.556,15.409 8.412,15.477C10.137,17.08 13.772,17.722 12.665,16.222C12.398,15.862 12.099,15.399 11.794,14.902C14.137,13.939 16.042,12.048 17.046,10.899L19.787,12.463L19.787,7.428L16.794,8.713Z" style="fill:rgb(250,42,255);fill-rule:nonzero;"/>
                <circle cx="3.514" cy="8.836" r="0.564" style="fill:rgb(250,42,255);"/>
            </g>
        </g>
    </g>
    <g id="icon1" serif:id="icon" transform="matrix(8.25355,0,0,8.25355,836.069,874.016)">
        <g transform="matrix(1,0,0,1,-9.8935,-9.8935)">
            <g>
                <path d="M5.594,5.087C2.216,6.582 0,9.759 0,9.759C0.018,9.78 1.679,11.439 3.054,10.938L3.1,11.278C2.927,11.341 2.75,11.369 2.57,11.369C1.62,11.369 0.628,10.824 0.115,10.346C0.841,11.253 2.803,13.486 5.353,14.698C7.256,11.453 5.891,6.137 5.594,5.087ZM3.513,9.894C2.945,9.894 2.483,9.432 2.483,8.864C2.483,8.295 2.945,7.834 3.513,7.834C4.082,7.834 4.544,8.294 4.544,8.864C4.544,9.432 4.082,9.894 3.513,9.894Z" style="fill:rgb(250,42,255);fill-rule:nonzero;"/>
                <path d="M16.794,8.713C15.803,7.621 14.153,6.065 12.155,5.147C14.186,4.25 18.191,5.868 14.532,3.608C11.017,1.437 8.168,3.825 7.416,4.563C7,4.656 6.593,4.78 6.2,4.936C6.492,5.926 7.96,11.392 5.955,14.858C6.73,15.188 7.556,15.409 8.412,15.477C10.137,17.08 13.772,17.722 12.665,16.222C12.398,15.862 12.099,15.399 11.794,14.902C14.137,13.939 16.042,12.048 17.046,10.899L19.787,12.463L19.787,7.428L16.794,8.713Z" style="fill:rgb(250,42,255);fill-rule:nonzero;"/>
                <circle cx="3.514" cy="8.836" r="0.564" style="fill:rgb(250,42,255);"/>
            </g>
        </g>
    </g>
    <g id="icon2" serif:id="icon" transform="matrix(8.25355,0,0,8.25355,1745.01,874.016)">
        <g transform="matrix(1,0,0,1,-9.8935,-9.8935)">
            <g>
                <path d="M5.594,5.087C2.216,6.582 0,9.759 0,9.759C0.018,9.78 1.679,11.439 3.054,10.938L3.1,11.278C2.927,11.341 2.75,11.369 2.57,11.369C1.62,11.369 0.628,10.824 0.115,10.346C0.841,11.253 2.803,13.486 5.353,14.698C7.256,11.453 5.891,6.137 5.594,5.087ZM3.513,9.894C2.945,9.894 2.483,9.432 2.483,8.864C2.483,8.295 2.945,7.834 3.513,7.834C4.082,7.834 4.544,8.294 4.544,8.864C4.544,9.432 4.082,9.894 3.513,9.894Z" style="fill:rgb(250,42,255);fill-rule:nonzero;"/>
                <path d="M16.794,8.713C15.803,7.621 14.153,6.065 12.155,5.147C14.186,4.25 18.191,5.868 14.532,3.608C11.017,1.437 8.168,3.825 7.416,4.563C7,4.656 6.593,4.78 6.2,4.936C6.492,5.926 7.96,11.392 5.955,14.858C6.73,15.188 7.556,15.409 8.412,15.477C10.137,17.08 13.772,17.722 12.665,16.222C12.398,15.862 12.099,15.399 11.794,14.902C14.137,13.939 16.042,12.048 17.046,10.899L19.787,12.463L19.787,7.428L16.794,8.713Z" style="fill:rgb(250,42,255);fill-rule:nonzero;"/>
                <circle cx="3.514" cy="8.836" r="0.564" style="fill:rgb(250,42,255);"/>
            </g>
        </g>
    </g>
    <g id="maracas" transform="matrix(0.318971,0,0,0.318971,166.888,81.6565)">
        <g transform="matrix(1,0,0,1,-256,-256)">
            <path d="M312.27,212C295.59,228.063 281.57,249.348 270.332,272L483.668,272C472.426,249.348 458.41,228.063 441.73,212L312.27,212Z" style="fill:rgb(18,63,255);fill-rule:nonzero;"/>
            <path d="M251.5,320.289L287,355.789L306.395,336.395C312.254,330.535 321.746,330.535 327.605,336.395L347,355.789L366.395,336.395C372.254,330.535 381.746,330.535 387.605,336.395L407,355.789L426.395,336.395C432.254,330.535 441.746,330.535 447.605,336.395L467,355.789L502.5,320.289C500.734,314.207 498.922,308.156 496.68,302L257.32,302C255.078,308.156 253.266,314.207 251.5,320.289Z" style="fill:rgb(18,63,255);fill-rule:nonzero;"/>
            <path d="M377,512C423.699,512 464.898,488.141 489.148,452L264.852,452C289.102,488.141 330.301,512 377,512Z" style="fill:rgb(18,63,255);fill-rule:nonzero;"/>
            <path d="M510.344,354.867L477.605,387.605C474.676,390.535 470.84,392 467,392C463.164,392 459.324,390.535 456.395,387.605L437,368.211L417.605,387.605C411.746,393.465 402.254,393.465 396.395,387.605L377,368.211L357.605,387.605C351.746,393.465 342.254,393.465 336.395,387.605L317,368.211L297.605,387.605C291.746,393.465 282.254,393.465 276.395,387.605L243.656,354.867C242.57,362.699 242,370.141 242,377C242,392.855 245.25,407.855 250.293,422L503.707,422C508.75,407.855 512,392.855 512,377C512,370.141 511.43,362.699 510.344,354.867Z" style="fill:rgb(18,63,255);fill-rule:nonzero;"/>
            <path d="M329.293,182L424.707,182L441.938,78.641C445.117,59.523 439.754,36.395 427.23,21.602C402.152,-7.988 351.848,-6.59 326.77,23C314.246,37.797 308.887,59.523 312.063,78.641L329.293,182Z" style="fill:rgb(18,63,255);fill-rule:nonzero;"/>
            <path d="M199.73,300C216.41,283.938 230.43,262.652 241.668,240L28.332,240C39.574,262.652 53.59,283.938 70.27,300L199.73,300Z" style="fill:rgb(18,63,255);fill-rule:nonzero;"/>
            <path d="M55.605,124.395L75,143.789L94.395,124.395C100.254,118.535 109.746,118.535 115.605,124.395L135,143.789L154.395,124.395C160.254,118.535 169.746,118.535 175.605,124.395L195,143.789L214.395,124.395C220.254,118.535 229.746,118.535 235.605,124.395L268.344,157.133C269.43,149.301 270,141.859 270,135C270,119.145 266.75,104.145 261.707,90L8.293,90C3.25,104.145 0,119.145 0,135C0,141.859 0.57,149.301 1.656,157.133L34.395,124.395C40.254,118.535 49.746,118.535 55.605,124.395Z" style="fill:rgb(18,63,255);fill-rule:nonzero;"/>
            <path d="M260.5,191.711L225,156.211L205.605,175.605C199.746,181.465 190.254,181.465 184.395,175.605L165,156.211L145.605,175.605C139.746,181.465 130.254,181.465 124.395,175.605L105,156.211L85.605,175.605C79.746,181.465 70.254,181.465 64.395,175.605L45,156.211L9.5,191.711C11.266,197.793 13.078,203.844 15.32,210L254.68,210C256.922,203.844 258.734,197.793 260.5,191.711Z" style="fill:rgb(18,63,255);fill-rule:nonzero;"/>
            <path d="M135,0C88.301,0 47.102,23.859 22.852,60L247.145,60C222.898,23.859 181.699,0 135,0Z" style="fill:rgb(18,63,255);fill-rule:nonzero;"/>
            <path d="M182.707,330L87.293,330L70.063,435.359C66.887,454.477 72.246,473.93 84.77,488.723C97.309,503.52 115.621,512 135,512C154.379,512 172.691,503.52 185.23,488.723C197.754,473.93 203.113,454.477 199.938,435.359L182.707,330Z" style="fill:rgb(18,63,255);fill-rule:nonzero;"/>
        </g>
    </g>
    <g id="maracas1" serif:id="maracas" transform="matrix(0.318971,0,0,0.318971,836.069,1412.31)">
        <g transform="matrix(1,0,0,1,-256,-256)">
            <path d="M312.27,212C295.59,228.063 281.57,249.348 270.332,272L483.668,272C472.426,249.348 458.41,228.063 441.73,212L312.27,212Z" style="fill:rgb(18,63,255);fill-rule:nonzero;"/>
            <path d="M251.5,320.289L287,355.789L306.395,336.395C312.254,330.535 321.746,330.535 327.605,336.395L347,355.789L366.395,336.395C372.254,330.535 381.746,330.535 387.605,336.395L407,355.789L426.395,336.395C432.254,330.535 441.746,330.535 447.605,336.395L467,355.789L502.5,320.289C500.734,314.207 498.922,308.156 496.68,302L257.32,302C255.078,308.156 253.266,314.207 251.5,320.289Z" style="fill:rgb(18,63,255);fill-rule:nonzero;"/>
            <path d="M377,512C423.699,512 464.898,488.141 489.148,452L264.852,452C289.102,488.141 330.301,512 377,512Z" style="fill:rgb(18,63,255);fill-rule:nonzero;"/>
            <path d="M510.344,354.867L477.605,387.605C474.676,390.535 470.84,392 467,392C463.164,392 459.324,390.535 456.395,387.605L437,368.211L417.605,387.605C411.746,393.465 402.254,393.465 396.395,387.605L377,368.211L357.605,387.605C351.746,393.465 342.254,393.465 336.395,387.605L317,368.211L297.605,387.605C291.746,393.465 282.254,393.465 276.395,387.605L243.656,354.867C242.57,362.699 242,370.141 242,377C242,392.855 245.25,407.855 250.293,422L503.707,422C508.75,407.855 512,392.855 512,377C512,370.141 511.43,362.699 510.344,354.867Z" style="fill:rgb(18,63,255);fill-rule:nonzero;"/>
            <path d="M329.293,182L424.707,182L441.938,78.641C445.117,59.523 439.754,36.395 427.23,21.602C402.152,-7.988 351.848,-6.59 326.77,23C314.246,37.797 308.887,59.523 312.063,78.641L329.293,182Z" style="fill:rgb(18,63,255);fill-rule:nonzero;"/>
            <path d="M199.73,300C216.41,283.938 230.43,262.652 241.668,240L28.332,240C39.574,262.652 53.59,283.938 70.27,300L199.73,300Z" style="fill:rgb(18,63,255);fill-rule:nonzero;"/>
            <path d="M55.605,124.395L75,143.789L94.395,124.395C100.254,118.535 109.746,118.535 115.605,124.395L135,143.789L154.395,124.395C160.254,118.535 169.746,118.535 175.605,124.395L195,143.789L214.395,124.395C220.254,118.535 229.746,118.535 235.605,124.395L268.344,157.133C269.43,149.301 270,141.859 270,135C270,119.145 266.75,104.145 261.707,90L8.293,90C3.25,104.145 0,119.145 0,135C0,141.859 0.57,149.301 1.656,157.133L34.395,124.395C40.254,118.535 49.746,118.535 55.605,124.395Z" style="fill:rgb(18,63,255);fill-rule:nonzero;"/>
            <path d="M260.5,191.711L225,156.211L205.605,175.605C199.746,181.465 190.254,181.465 184.395,175.605L165,156.211L145.605,175.605C139.746,181.465 130.254,181.465 124.395,175.605L105,156.211L85.605,175.605C79.746,181.465 70.254,181.465 64.395,175.605L45,156.211L9.5,191.711C11.266,197.793 13.078,203.844 15.32,210L254.68,210C256.922,203.844 258.734,197.793 260.5,191.711Z" style="fill:rgb(18,63,255);fill-rule:nonzero;"/>
            <path d="M135,0C88.301,0 47.102,23.859 22.852,60L247.145,60C222.898,23.859 181.699,0 135,0Z" style="fill:rgb(18,63,255);fill-rule:nonzero;"/>
            <path d="M182.707,330L87.293,330L70.063,435.359C66.887,454.477 72.246,473.93 84.77,488.723C97.309,503.52 115.621,512 135,512C154.379,512 172.691,503.52 185.23,488.723C197.754,473.93 203.113,454.477 199.938,435.359L182.707,330Z" style="fill:rgb(18,63,255);fill-rule:nonzero;"/>
        </g>
    </g>
    <g id="maracas2" serif:id="maracas" transform="matrix(0.318971,0,0,0.318971,1745.01,1412.31)">
        <g transform="matrix(1,0,0,1,-256,-256)">
            <path d="M312.27,212C295.59,228.063 281.57,249.348 270.332,272L483.668,272C472.426,249.348 458.41,228.063 441.73,212L312.27,212Z" style="fill:rgb(18,63,255);fill-rule:nonzero;"/>
            <path d="M251.5,320.289L287,355.789L306.395,336.395C312.254,330.535 321.746,330.535 327.605,336.395L347,355.789L366.395,336.395C372.254,330.535 381.746,330.535 387.605,336.395L407,355.789L426.395,336.395C432.254,330.535 441.746,330.535 447.605,336.395L467,355.789L502.5,320.289C500.734,314.207 498.922,308.156 496.68,302L257.32,302C255.078,308.156 253.266,314.207 251.5,320.289Z" style="fill:rgb(18,63,255);fill-rule:nonzero;"/>
            <path d="M377,512C423.699,512 464.898,488.141 489.148,452L264.852,452C289.102,488.141 330.301,512 377,512Z" style="fill:rgb(18,63,255);fill-rule:nonzero;"/>
            <path d="M510.344,354.867L477.605,387.605C474.676,390.535 470.84,392 467,392C463.164,392 459.324,390.535 456.395,387.605L437,368.211L417.605,387.605C411.746,393.465 402.254,393.465 396.395,387.605L377,368.211L357.605,387.605C351.746,393.465 342.254,393.465 336.395,387.605L317,368.211L297.605,387.605C291.746,393.465 282.254,393.465 276.395,387.605L243.656,354.867C242.57,362.699 242,370.141 242,377C242,392.855 245.25,407.855 250.293,422L503.707,422C508.75,407.855 512,392.855 512,377C512,370.141 511.43,362.699 510.344,354.867Z" style="fill:rgb(18,63,255);fill-rule:nonzero;"/>
            <path d="M329.293,182L424.707,182L441.938,78.641C445.117,59.523 439.754,36.395 427.23,21.602C402.152,-7.988 351.848,-6.59 326.77,23C314.246,37.797 308.887,59.523 312.063,78.641L329.293,182Z" style="fill:rgb(18,63,255);fill-rule:nonzero;"/>
            <path d="M199.73,300C216.41,283.938 230.43,262.652 241.668,240L28.332,240C39.574,262.652 53.59,283.938 70.27,300L199.73,300Z" style="fill:rgb(18,63,255);fill-rule:nonzero;"/>
            <path d="M55.605,124.395L75,143.789L94.395,124.395C100.254,118.535 109.746,118.535 115.605,124.395L135,143.789L154.395,124.395C160.254,118.535 169.746,118.535 175.605,124.395L195,143.789L214.395,124.395C220.254,118.535 229.746,118.535 235.605,124.395L268.344,157.133C269.43,149.301 270,141.859 270,135C270,119.145 266.75,104.145 261.707,90L8.293,90C3.25,104.145 0,119.145 0,135C0,141.859 0.57,149.301 1.656,157.133L34.395,124.395C40.254,118.535 49.746,118.535 55.605,124.395Z" style="fill:rgb(18,63,255);fill-rule:nonzero;"/>
            <path d="M260.5,191.711L225,156.211L205.605,175.605C199.746,181.465 190.254,181.465 184.395,175.605L165,156.211L145.605,175.605C139.746,181.465 130.254,181.465 124.395,175.605L105,156.211L85.605,175.605C79.746,181.465 70.254,181.465 64.395,175.605L45,156.211L9.5,191.711C11.266,197.793 13.078,203.844 15.32,210L254.68,210C256.922,203.844 258.734,197.793 260.5,191.711Z" style="fill:rgb(18,63,255);fill-rule:nonzero;"/>
            <path d="M135,0C88.301,0 47.102,23.859 22.852,60L247.145,60C222.898,23.859 181.699,0 135,0Z" style="fill:rgb(18,63,255);fill-rule:nonzero;"/>
            <path d="M182.707,330L87.293,330L70.063,435.359C66.887,454.477 72.246,473.93 84.77,488.723C97.309,503.52 115.621,512 135,512C154.379,512 172.691,503.52 185.23,488.723C197.754,473.93 203.113,454.477 199.938,435.359L182.707,330Z" style="fill:rgb(18,63,255);fill-rule:nonzero;"/>
        </g>
    </g>
    <g id="maracas3" serif:id="maracas" transform="matrix(0.318971,0,0,0.318971,1076.37,583.147)">
        <g transform="matrix(1,0,0,1,-256,-256)">
            <path d="M312.27,212C295.59,228.063 281.57,249.348 270.332,272L483.668,272C472.426,249.348 458.41,228.063 441.73,212L312.27,212Z" style="fill:rgb(18,63,255);fill-rule:nonzero;"/>
            <path d="M251.5,320.289L287,355.789L306.395,336.395C312.254,330.535 321.746,330.535 327.605,336.395L347,355.789L366.395,336.395C372.254,330.535 381.746,330.535 387.605,336.395L407,355.789L426.395,336.395C432.254,330.535 441.746,330.535 447.605,336.395L467,355.789L502.5,320.289C500.734,314.207 498.922,308.156 496.68,302L257.32,302C255.078,308.156 253.266,314.207 251.5,320.289Z" style="fill:rgb(18,63,255);fill-rule:nonzero;"/>
            <path d="M377,512C423.699,512 464.898,488.141 489.148,452L264.852,452C289.102,488.141 330.301,512 377,512Z" style="fill:rgb(18,63,255);fill-rule:nonzero;"/>
            <path d="M510.344,354.867L477.605,387.605C474.676,390.535 470.84,392 467,392C463.164,392 459.324,390.535 456.395,387.605L437,368.211L417.605,387.605C411.746,393.465 402.254,393.465 396.395,387.605L377,368.211L357.605,387.605C351.746,393.465 342.254,393.465 336.395,387.605L317,368.211L297.605,387.605C291.746,393.465 282.254,393.465 276.395,387.605L243.656,354.867C242.57,362.699 242,370.141 242,377C242,392.855 245.25,407.855 250.293,422L503.707,422C508.75,407.855 512,392.855 512,377C512,370.141 511.43,362.699 510.344,354.867Z" style="fill:rgb(18,63,255);fill-rule:nonzero;"/>
            <path d="M329.293,182L424.707,182L441.938,78.641C445.117,59.523 439.754,36.395 427.23,21.602C402.152,-7.988 351.848,-6.59 326.77,23C314.246,37.797 308.887,59.523 312.063,78.641L329.293,182Z" style="fill:rgb(18,63,255);fill-rule:nonzero;"/>
            <path d="M199.73,300C216.41,283.938 230.43,262.652 241.668,240L28.332,240C39.574,262.652 53.59,283.938 70.27,300L199.73,300Z" style="fill:rgb(18,63,255);fill-rule:nonzero;"/>
            <path d="M55.605,124.395L75,143.789L94.395,124.395C100.254,118.535 109.746,118.535 115.605,124.395L135,143.789L154.395,124.395C160.254,118.535 169.746,118.535 175.605,124.395L195,143.789L214.395,124.395C220.254,118.535 229.746,118.535 235.605,124.395L268.344,157.133C269.43,149.301 270,141.859 270,135C270,119.145 266.75,104.145 261.707,90L8.293,90C3.25,104.145 0,119.145 0,135C0,141.859 0.57,149.301 1.656,157.133L34.395,124.395C40.254,118.535 49.746,118.535 55.605,124.395Z" style="fill:rgb(18,63,255);fill-rule:nonzero;"/>
            <path d="M260.5,191.711L225,156.211L205.605,175.605C199.746,181.465 190.254,181.465 184.395,175.605L165,156.211L145.605,175.605C139.746,181.465 130.254,181.465 124.395,175.605L105,156.211L85.605,175.605C79.746,181.465 70.254,181.465 64.395,175.605L45,156.211L9.5,191.711C11.266,197.793 13.078,203.844 15.32,210L254.68,210C256.922,203.844 258.734,197.793 260.5,191.711Z" style="fill:rgb(18,63,255);fill-rule:nonzero;"/>
            <path d="M135,0C88.301,0 47.102,23.859 22.852,60L247.145,60C222.898,23.859 181.699,0 135,0Z" style="fill:rgb(18,63,255);fill-rule:nonzero;"/>
            <path d="M182.707,330L87.293,330L70.063,435.359C66.887,454.477 72.246,473.93 84.77,488.723C97.309,503.52 115.621,512 135,512C154.379,512 172.691,503.52 185.23,488.723C197.754,473.93 203.113,454.477 199.938,435.359L182.707,330Z" style="fill:rgb(18,63,255);fill-rule:nonzero;"/>
        </g>
    </g>
    <g id="maracas4" serif:id="maracas" transform="matrix(0.318971,0,0,0.318971,1985.31,583.147)">
        <g transform="matrix(1,0,0,1,-256,-256)">
            <path d="M312.27,212C295.59,228.063 281.57,249.348 270.332,272L483.668,272C472.426,249.348 458.41,228.063 441.73,212L312.27,212Z" style="fill:rgb(18,63,255);fill-rule:nonzero;"/>
            <path d="M251.5,320.289L287,355.789L306.395,336.395C312.254,330.535 321.746,330.535 327.605,336.395L347,355.789L366.395,336.395C372.254,330.535 381.746,330.535 387.605,336.395L407,355.789L426.395,336.395C432.254,330.535 441.746,330.535 447.605,336.395L467,355.789L502.5,320.289C500.734,314.207 498.922,308.156 496.68,302L257.32,302C255.078,308.156 253.266,314.207 251.5,320.289Z" style="fill:rgb(18,63,255);fill-rule:nonzero;"/>
            <path d="M377,512C423.699,512 464.898,488.141 489.148,452L264.852,452C289.102,488.141 330.301,512 377,512Z" style="fill:rgb(18,63,255);fill-rule:nonzero;"/>
            <path d="M510.344,354.867L477.605,387.605C474.676,390.535 470.84,392 467,392C463.164,392 459.324,390.535 456.395,387.605L437,368.211L417.605,387.605C411.746,393.465 402.254,393.465 396.395,387.605L377,368.211L357.605,387.605C351.746,393.465 342.254,393.465 336.395,387.605L317,368.211L297.605,387.605C291.746,393.465 282.254,393.465 276.395,387.605L243.656,354.867C242.57,362.699 242,370.141 242,377C242,392.855 245.25,407.855 250.293,422L503.707,422C508.75,407.855 512,392.855 512,377C512,370.141 511.43,362.699 510.344,354.867Z" style="fill:rgb(18,63,255);fill-rule:nonzero;"/>
            <path d="M329.293,182L424.707,182L441.938,78.641C445.117,59.523 439.754,36.395 427.23,21.602C402.152,-7.988 351.848,-6.59 326.77,23C314.246,37.797 308.887,59.523 312.063,78.641L329.293,182Z" style="fill:rgb(18,63,255);fill-rule:nonzero;"/>
            <path d="M199.73,300C216.41,283.938 230.43,262.652 241.668,240L28.332,240C39.574,262.652 53.59,283.938 70.27,300L199.73,300Z" style="fill:rgb(18,63,255);fill-rule:nonzero;"/>
            <path d="M55.605,124.395L75,143.789L94.395,124.395C100.254,118.535 109.746,118.535 115.605,124.395L135,143.789L154.395,124.395C160.254,118.535 169.746,118.535 175.605,124.395L195,143.789L214.395,124.395C220.254,118.535 229.746,118.535 235.605,124.395L268.344,157.133C269.43,149.301 270,141.859 270,135C270,119.145 266.75,104.145 261.707,90L8.293,90C3.25,104.145 0,119.145 0,135C0,141.859 0.57,149.301 1.656,157.133L34.395,124.395C40.254,118.535 49.746,118.535 55.605,124.395Z" style="fill:rgb(18,63,255);fill-rule:nonzero;"/>
            <path d="M260.5,191.711L225,156.211L205.605,175.605C199.746,181.465 190.254,181.465 184.395,175.605L165,156.211L145.605,175.605C139.746,181.465 130.254,181.465 124.395,175.605L105,156.211L85.605,175.605C79.746,181.465 70.254,181.465 64.395,175.605L45,156.211L9.5,191.711C11.266,197.793 13.078,203.844 15.32,210L254.68,210C256.922,203.844 258.734,197.793 260.5,191.711Z" style="fill:rgb(18,63,255);fill-rule:nonzero;"/>
            <path d="M135,0C88.301,0 47.102,23.859 22.852,60L247.145,60C222.898,23.859 181.699,0 135,0Z" style="fill:rgb(18,63,255);fill-rule:nonzero;"/>
            <path d="M182.707,330L87.293,330L70.063,435.359C66.887,454.477 72.246,473.93 84.77,488.723C97.309,503.52 115.621,512 135,512C154.379,512 172.691,503.52 185.23,488.723C197.754,473.93 203.113,454.477 199.938,435.359L182.707,330Z" style="fill:rgb(18,63,255);fill-rule:nonzero;"/>
        </g>
    </g>
    <g id="pineapple" transform="matrix(0.318971,0,0,0.351462,166.888,1133.58)">
        <g transform="matrix(1,0,0,1,-256,-256)">
            <path d="M58.594,250.34L161.852,293.828L118.363,190.57L58.594,250.34Z" style="fill:rgb(255,227,15);fill-rule:nonzero;"/>
            <path d="M70.418,385.262L27.574,283.535C11.582,305.055 2.387,330.066 0,355.605L70.418,385.262Z" style="fill:rgb(255,227,15);fill-rule:nonzero;"/>
            <path d="M218.102,350.082L261.594,453.34L321.363,393.57L218.102,350.082Z" style="fill:rgb(255,227,15);fill-rule:nonzero;"/>
            <path d="M178.523,333.41L60.145,283.555L110,401.934L228.379,451.789L178.523,333.41Z" style="fill:rgb(255,227,15);fill-rule:nonzero;"/>
            <path d="M126.668,441.516L156.355,512C182.617,509.563 207.387,500.047 228.418,484.367L126.668,441.516Z" style="fill:rgb(255,227,15);fill-rule:nonzero;"/>
            <path d="M41.344,470.586C63.844,493.09 92.504,507.188 123.516,511.336L87.09,424.844L0.68,388.453C4.738,418.516 18.285,447.531 41.344,470.586Z" style="fill:rgb(255,227,15);fill-rule:nonzero;"/>
            <path d="M201.434,310.5L319.813,360.355L269.957,241.977L151.578,192.121L201.434,310.5Z" style="fill:rgb(255,227,15);fill-rule:nonzero;"/>
            <path d="M338.484,194.414L317.52,173.445C308.527,164.457 301.02,154.379 295.105,143.516C282.707,138.059 269.695,134.441 256.477,132.656L292.867,219.066L379.277,255.457C377.492,242.238 373.871,229.223 368.414,216.828C357.555,210.91 347.477,203.406 338.484,194.414Z" style="fill:rgb(255,227,15);fill-rule:nonzero;"/>
            <path d="M309.535,258.645L352.379,360.371C368.371,338.852 377.566,313.84 379.953,288.305L309.535,258.645Z" style="fill:rgb(255,227,15);fill-rule:nonzero;"/>
            <path d="M151.559,159.551L253.285,202.395L223.629,131.977C198.09,134.363 173.078,143.559 151.559,159.551Z" style="fill:rgb(255,227,15);fill-rule:nonzero;"/>
            <path d="M443.426,123.695L443.402,123.703C456.484,106.77 464.273,85.539 464.273,62.484L464.273,47.656L449.449,47.656C426.395,47.656 405.164,55.445 388.23,68.527L388.238,68.504C385.512,47.289 376,26.777 359.707,10.484L349.219,0L338.734,10.484C299.594,49.625 299.594,113.086 338.734,152.227L359.703,173.195C379.273,192.766 404.926,202.551 430.574,202.551C456.223,202.551 481.875,192.766 501.445,173.195L511.93,162.711L501.445,152.227C485.152,135.93 464.641,126.422 443.426,123.695Z" style="fill:rgb(255,227,15);fill-rule:nonzero;"/>
        </g>
    </g>
    <g id="pineapple1" serif:id="pineapple" transform="matrix(0.318971,0,0,0.351462,1076.37,1133.58)">
        <g transform="matrix(1,0,0,1,-256,-256)">
            <path d="M58.594,250.34L161.852,293.828L118.363,190.57L58.594,250.34Z" style="fill:rgb(255,227,15);fill-rule:nonzero;"/>
            <path d="M70.418,385.262L27.574,283.535C11.582,305.055 2.387,330.066 0,355.605L70.418,385.262Z" style="fill:rgb(255,227,15);fill-rule:nonzero;"/>
            <path d="M218.102,350.082L261.594,453.34L321.363,393.57L218.102,350.082Z" style="fill:rgb(255,227,15);fill-rule:nonzero;"/>
            <path d="M178.523,333.41L60.145,283.555L110,401.934L228.379,451.789L178.523,333.41Z" style="fill:rgb(255,227,15);fill-rule:nonzero;"/>
            <path d="M126.668,441.516L156.355,512C182.617,509.563 207.387,500.047 228.418,484.367L126.668,441.516Z" style="fill:rgb(255,227,15);fill-rule:nonzero;"/>
            <path d="M41.344,470.586C63.844,493.09 92.504,507.188 123.516,511.336L87.09,424.844L0.68,388.453C4.738,418.516 18.285,447.531 41.344,470.586Z" style="fill:rgb(255,227,15);fill-rule:nonzero;"/>
            <path d="M201.434,310.5L319.813,360.355L269.957,241.977L151.578,192.121L201.434,310.5Z" style="fill:rgb(255,227,15);fill-rule:nonzero;"/>
            <path d="M338.484,194.414L317.52,173.445C308.527,164.457 301.02,154.379 295.105,143.516C282.707,138.059 269.695,134.441 256.477,132.656L292.867,219.066L379.277,255.457C377.492,242.238 373.871,229.223 368.414,216.828C357.555,210.91 347.477,203.406 338.484,194.414Z" style="fill:rgb(255,227,15);fill-rule:nonzero;"/>
            <path d="M309.535,258.645L352.379,360.371C368.371,338.852 377.566,313.84 379.953,288.305L309.535,258.645Z" style="fill:rgb(255,227,15);fill-rule:nonzero;"/>
            <path d="M151.559,159.551L253.285,202.395L223.629,131.977C198.09,134.363 173.078,143.559 151.559,159.551Z" style="fill:rgb(255,227,15);fill-rule:nonzero;"/>
            <path d="M443.426,123.695L443.402,123.703C456.484,106.77 464.273,85.539 464.273,62.484L464.273,47.656L449.449,47.656C426.395,47.656 405.164,55.445 388.23,68.527L388.238,68.504C385.512,47.289 376,26.777 359.707,10.484L349.219,0L338.734,10.484C299.594,49.625 299.594,113.086 338.734,152.227L359.703,173.195C379.273,192.766 404.926,202.551 430.574,202.551C456.223,202.551 481.875,192.766 501.445,173.195L511.93,162.711L501.445,152.227C485.152,135.93 464.641,126.422 443.426,123.695Z" style="fill:rgb(255,227,15);fill-rule:nonzero;"/>
        </g>
    </g>
    <g id="pineapple2" serif:id="pineapple" transform="matrix(0.318971,0,0,0.351462,1985.31,1133.58)">
        <g transform="matrix(1,0,0,1,-256,-256)">
            <path d="M58.594,250.34L161.852,293.828L118.363,190.57L58.594,250.34Z" style="fill:rgb(255,227,15);fill-rule:nonzero;"/>
            <path d="M70.418,385.262L27.574,283.535C11.582,305.055 2.387,330.066 0,355.605L70.418,385.262Z" style="fill:rgb(255,227,15);fill-rule:nonzero;"/>
            <path d="M218.102,350.082L261.594,453.34L321.363,393.57L218.102,350.082Z" style="fill:rgb(255,227,15);fill-rule:nonzero;"/>
            <path d="M178.523,333.41L60.145,283.555L110,401.934L228.379,451.789L178.523,333.41Z" style="fill:rgb(255,227,15);fill-rule:nonzero;"/>
            <path d="M126.668,441.516L156.355,512C182.617,509.563 207.387,500.047 228.418,484.367L126.668,441.516Z" style="fill:rgb(255,227,15);fill-rule:nonzero;"/>
            <path d="M41.344,470.586C63.844,493.09 92.504,507.188 123.516,511.336L87.09,424.844L0.68,388.453C4.738,418.516 18.285,447.531 41.344,470.586Z" style="fill:rgb(255,227,15);fill-rule:nonzero;"/>
            <path d="M201.434,310.5L319.813,360.355L269.957,241.977L151.578,192.121L201.434,310.5Z" style="fill:rgb(255,227,15);fill-rule:nonzero;"/>
            <path d="M338.484,194.414L317.52,173.445C308.527,164.457 301.02,154.379 295.105,143.516C282.707,138.059 269.695,134.441 256.477,132.656L292.867,219.066L379.277,255.457C377.492,242.238 373.871,229.223 368.414,216.828C357.555,210.91 347.477,203.406 338.484,194.414Z" style="fill:rgb(255,227,15);fill-rule:nonzero;"/>
            <path d="M309.535,258.645L352.379,360.371C368.371,338.852 377.566,313.84 379.953,288.305L309.535,258.645Z" style="fill:rgb(255,227,15);fill-rule:nonzero;"/>
            <path d="M151.559,159.551L253.285,202.395L223.629,131.977C198.09,134.363 173.078,143.559 151.559,159.551Z" style="fill:rgb(255,227,15);fill-rule:nonzero;"/>
            <path d="M443.426,123.695L443.402,123.703C456.484,106.77 464.273,85.539 464.273,62.484L464.273,47.656L449.449,47.656C426.395,47.656 405.164,55.445 388.23,68.527L388.238,68.504C385.512,47.289 376,26.777 359.707,10.484L349.219,0L338.734,10.484C299.594,49.625 299.594,113.086 338.734,152.227L359.703,173.195C379.273,192.766 404.926,202.551 430.574,202.551C456.223,202.551 481.875,192.766 501.445,173.195L511.93,162.711L501.445,152.227C485.152,135.93 464.641,126.422 443.426,123.695Z" style="fill:rgb(255,227,15);fill-rule:nonzero;"/>
        </g>
    </g>
    <g id="pineapple3" serif:id="pineapple" transform="matrix(0.318971,0,0,0.351462,836.069,346.168)">
        <g transform="matrix(1,0,0,1,-256,-256)">
            <path d="M58.594,250.34L161.852,293.828L118.363,190.57L58.594,250.34Z" style="fill:rgb(255,227,15);fill-rule:nonzero;"/>
            <path d="M70.418,385.262L27.574,283.535C11.582,305.055 2.387,330.066 0,355.605L70.418,385.262Z" style="fill:rgb(255,227,15);fill-rule:nonzero;"/>
            <path d="M218.102,350.082L261.594,453.34L321.363,393.57L218.102,350.082Z" style="fill:rgb(255,227,15);fill-rule:nonzero;"/>
            <path d="M178.523,333.41L60.145,283.555L110,401.934L228.379,451.789L178.523,333.41Z" style="fill:rgb(255,227,15);fill-rule:nonzero;"/>
            <path d="M126.668,441.516L156.355,512C182.617,509.563 207.387,500.047 228.418,484.367L126.668,441.516Z" style="fill:rgb(255,227,15);fill-rule:nonzero;"/>
            <path d="M41.344,470.586C63.844,493.09 92.504,507.188 123.516,511.336L87.09,424.844L0.68,388.453C4.738,418.516 18.285,447.531 41.344,470.586Z" style="fill:rgb(255,227,15);fill-rule:nonzero;"/>
            <path d="M201.434,310.5L319.813,360.355L269.957,241.977L151.578,192.121L201.434,310.5Z" style="fill:rgb(255,227,15);fill-rule:nonzero;"/>
            <path d="M338.484,194.414L317.52,173.445C308.527,164.457 301.02,154.379 295.105,143.516C282.707,138.059 269.695,134.441 256.477,132.656L292.867,219.066L379.277,255.457C377.492,242.238 373.871,229.223 368.414,216.828C357.555,210.91 347.477,203.406 338.484,194.414Z" style="fill:rgb(255,227,15);fill-rule:nonzero;"/>
            <path d="M309.535,258.645L352.379,360.371C368.371,338.852 377.566,313.84 379.953,288.305L309.535,258.645Z" style="fill:rgb(255,227,15);fill-rule:nonzero;"/>
            <path d="M151.559,159.551L253.285,202.395L223.629,131.977C198.09,134.363 173.078,143.559 151.559,159.551Z" style="fill:rgb(255,227,15);fill-rule:nonzero;"/>
            <path d="M443.426,123.695L443.402,123.703C456.484,106.77 464.273,85.539 464.273,62.484L464.273,47.656L449.449,47.656C426.395,47.656 405.164,55.445 388.23,68.527L388.238,68.504C385.512,47.289 376,26.777 359.707,10.484L349.219,0L338.734,10.484C299.594,49.625 299.594,113.086 338.734,152.227L359.703,173.195C379.273,192.766 404.926,202.551 430.574,202.551C456.223,202.551 481.875,192.766 501.445,173.195L511.93,162.711L501.445,152.227C485.152,135.93 464.641,126.422 443.426,123.695Z" style="fill:rgb(255,227,15);fill-rule:nonzero;"/>
        </g>
    </g>
    <g id="pineapple4" serif:id="pineapple" transform="matrix(0.318971,0,0,0.351462,1745.01,346.168)">
        <g transform="matrix(1,0,0,1,-256,-256)">
            <path d="M58.594,250.34L161.852,293.828L118.363,190.57L58.594,250.34Z" style="fill:rgb(255,227,15);fill-rule:nonzero;"/>
            <path d="M70.418,385.262L27.574,283.535C11.582,305.055 2.387,330.066 0,355.605L70.418,385.262Z" style="fill:rgb(255,227,15);fill-rule:nonzero;"/>
            <path d="M218.102,350.082L261.594,453.34L321.363,393.57L218.102,350.082Z" style="fill:rgb(255,227,15);fill-rule:nonzero;"/>
            <path d="M178.523,333.41L60.145,283.555L110,401.934L228.379,451.789L178.523,333.41Z" style="fill:rgb(255,227,15);fill-rule:nonzero;"/>
            <path d="M126.668,441.516L156.355,512C182.617,509.563 207.387,500.047 228.418,484.367L126.668,441.516Z" style="fill:rgb(255,227,15);fill-rule:nonzero;"/>
            <path d="M41.344,470.586C63.844,493.09 92.504,507.188 123.516,511.336L87.09,424.844L0.68,388.453C4.738,418.516 18.285,447.531 41.344,470.586Z" style="fill:rgb(255,227,15);fill-rule:nonzero;"/>
            <path d="M201.434,310.5L319.813,360.355L269.957,241.977L151.578,192.121L201.434,310.5Z" style="fill:rgb(255,227,15);fill-rule:nonzero;"/>
            <path d="M338.484,194.414L317.52,173.445C308.527,164.457 301.02,154.379 295.105,143.516C282.707,138.059 269.695,134.441 256.477,132.656L292.867,219.066L379.277,255.457C377.492,242.238 373.871,229.223 368.414,216.828C357.555,210.91 347.477,203.406 338.484,194.414Z" style="fill:rgb(255,227,15);fill-rule:nonzero;"/>
            <path d="M309.535,258.645L352.379,360.371C368.371,338.852 377.566,313.84 379.953,288.305L309.535,258.645Z" style="fill:rgb(255,227,15);fill-rule:nonzero;"/>
            <path d="M151.559,159.551L253.285,202.395L223.629,131.977C198.09,134.363 173.078,143.559 151.559,159.551Z" style="fill:rgb(255,227,15);fill-rule:nonzero;"/>
            <path d="M443.426,123.695L443.402,123.703C456.484,106.77 464.273,85.539 464.273,62.484L464.273,47.656L449.449,47.656C426.395,47.656 405.164,55.445 388.23,68.527L388.238,68.504C385.512,47.289 376,26.777 359.707,10.484L349.219,0L338.734,10.484C299.594,49.625 299.594,113.086 338.734,152.227L359.703,173.195C379.273,192.766 404.926,202.551 430.574,202.551C456.223,202.551 481.875,192.766 501.445,173.195L511.93,162.711L501.445,152.227C485.152,135.93 464.641,126.422 443.426,123.695Z" style="fill:rgb(255,227,15);fill-rule:nonzero;"/>
        </g>
    </g>
    <g id="surfboard" transform="matrix(0.359631,0,0,0.359631,572.031,81.6565)">
        <g transform="matrix(1,0,0,1,-227.056,-227.056)">
            <clipPath id="_clip4">
                <rect x="0" y="0" width="454.113" height="454.113"/>
            </clipPath>
            <g clip-path="url(#_clip4)">
                <g>
                    <path d="M164.653,132.291C80.118,216.826 -2.84,340.268 0.075,407.786L12.595,420.306L432.9,0C386.056,3.941 272.078,24.867 164.653,132.291Z" style="fill:rgb(123,0,237);fill-rule:nonzero;"/>
                    <path d="M33.808,441.519L46.328,454.039C113.846,456.954 237.288,373.996 321.823,289.46C429.247,182.036 450.172,68.057 454.113,21.213L33.808,441.519Z" style="fill:rgb(123,0,237);fill-rule:nonzero;"/>
                </g>
            </g>
        </g>
    </g>
    <g id="surfboard1" serif:id="surfboard" transform="matrix(0.359631,0,0,0.359631,1480.97,81.6565)">
        <g transform="matrix(1,0,0,1,-227.056,-227.056)">
            <clipPath id="_clip5">
                <rect x="0" y="0" width="454.113" height="454.113"/>
            </clipPath>
            <g clip-path="url(#_clip5)">
                <g>
                    <path d="M164.653,132.291C80.118,216.826 -2.84,340.268 0.075,407.786L12.595,420.306L432.9,0C386.056,3.941 272.078,24.867 164.653,132.291Z" style="fill:rgb(123,0,237);fill-rule:nonzero;"/>
                    <path d="M33.808,441.519L46.328,454.039C113.846,456.954 237.288,373.996 321.823,289.46C429.247,182.036 450.172,68.057 454.113,21.213L33.808,441.519Z" style="fill:rgb(123,0,237);fill-rule:nonzero;"/>
                </g>
            </g>
        </g>
    </g>
    <g id="surfboard2" serif:id="surfboard" transform="matrix(0.359631,0,0,0.359631,2241.18,337.85)">
        <g transform="matrix(1,0,0,1,-227.056,-227.056)">
            <clipPath id="_clip6">
                <rect x="0" y="0" width="454.113" height="454.113"/>
            </clipPath>
            <g clip-path="url(#_clip6)">
                <g>
                    <path d="M164.653,132.291C80.118,216.826 -2.84,340.268 0.075,407.786L12.595,420.306L432.9,0C386.056,3.941 272.078,24.867 164.653,132.291Z" style="fill:rgb(123,0,237);fill-rule:nonzero;"/>
                    <path d="M33.808,441.519L46.328,454.039C113.846,456.954 237.288,373.996 321.823,289.46C429.247,182.036 450.172,68.057 454.113,21.213L33.808,441.519Z" style="fill:rgb(123,0,237);fill-rule:nonzero;"/>
                </g>
            </g>
        </g>
    </g>
    <g id="surfboard3" serif:id="surfboard" transform="matrix(0.359631,0,0,0.359631,166.888,1666.38)">
        <g transform="matrix(1,0,0,1,-227.056,-227.056)">
            <clipPath id="_clip7">
                <rect x="0" y="0" width="454.113" height="454.113"/>
            </clipPath>
            <g clip-path="url(#_clip7)">
                <g>
                    <path d="M164.653,132.291C80.118,216.826 -2.84,340.268 0.075,407.786L12.595,420.306L432.9,0C386.056,3.941 272.078,24.867 164.653,132.291Z" style="fill:rgb(123,0,237);fill-rule:nonzero;"/>
                    <path d="M33.808,441.519L46.328,454.039C113.846,456.954 237.288,373.996 321.823,289.46C429.247,182.036 450.172,68.057 454.113,21.213L33.808,441.519Z" style="fill:rgb(123,0,237);fill-rule:nonzero;"/>
                </g>
            </g>
        </g>
    </g>
    <g id="coconut-tree" transform="matrix(2.84453,0,0,2.84453,382.675,337.85)">
        <g transform="matrix(1,0,0,1,-28.7065,-28.7065)">
            <clipPath id="_clip8">
                <rect x="0" y="0" width="57.413" height="57.413"/>
            </clipPath>
            <g clip-path="url(#_clip8)">
                <path d="M56.934,6.513C53.548,2.374 48.531,0 43.169,0C39.887,0 36.669,0.916 33.862,2.65C30.386,4.797 27.9,8.002 26.568,11.621C25.518,8.431 23.3,5.636 20.161,3.96C18.221,2.925 16.041,2.377 13.857,2.377C9.534,2.377 5.451,4.471 2.935,7.976C2.814,8.145 2.81,8.37 2.923,8.543C3.036,8.716 3.245,8.799 3.448,8.756C6.131,8.162 9.047,8.214 11.863,8.905C11.999,8.939 12.146,8.914 12.263,8.833C12.38,8.754 12.458,8.628 12.477,8.487L12.632,7.349L13.976,9.454C14.034,9.544 14.119,9.613 14.219,9.651C15.134,10.001 15.878,10.333 16.562,10.699C17.122,10.998 17.692,11.344 18.307,11.755C18.452,11.853 18.639,11.867 18.796,11.793C18.955,11.719 19.063,11.568 19.082,11.394L19.212,10.204L20.371,13.27C20.399,13.345 20.446,13.413 20.506,13.466C22.244,15.019 23.666,16.845 24.695,18.815C22.103,15.88 18.321,14.062 14.279,14.062C13.499,14.062 12.711,14.128 11.936,14.26C5.096,15.423 0.125,21.528 0.375,28.464C0.382,28.672 0.517,28.853 0.713,28.919C0.766,28.938 0.82,28.946 0.875,28.946C1.021,28.946 1.163,28.883 1.259,28.766C3.085,26.573 5.507,24.767 8.261,23.544C8.39,23.486 8.49,23.377 8.533,23.242C8.576,23.107 8.561,22.96 8.491,22.837L7.871,21.762L10.356,22.653C10.456,22.689 10.567,22.692 10.669,22.661C11.638,22.368 12.461,22.169 13.257,22.033C13.899,21.924 14.587,21.845 15.36,21.792C15.534,21.78 15.69,21.678 15.77,21.522C15.85,21.366 15.843,21.18 15.752,21.031L15.063,19.907L18.024,21.725C18.092,21.767 18.17,21.792 18.251,21.798C20.688,21.97 23.039,22.578 25.154,23.56L18.935,56.821C18.908,56.967 18.947,57.118 19.042,57.232C19.137,57.346 19.278,57.413 19.427,57.413L32.644,57.413C32.651,57.412 32.657,57.412 32.664,57.413C32.94,57.413 33.164,57.189 33.164,56.913C33.164,56.848 33.151,56.785 33.129,56.728L31.638,40.902C31.625,40.762 31.554,40.635 31.443,40.55C31.331,40.465 31.19,40.433 31.051,40.456L28.055,41C28.769,40.036 29.914,38.499 31.129,36.894C31.204,36.794 31.24,36.669 31.228,36.545L30.005,23.567C31.644,22.452 33.495,21.577 35.478,21.007C35.555,20.985 35.626,20.944 35.685,20.889L38.06,18.629L37.66,19.758C37.601,19.923 37.634,20.107 37.744,20.241C37.855,20.377 38.03,20.44 38.202,20.42C38.944,20.315 39.608,20.251 40.233,20.226C41.038,20.191 41.827,20.216 42.799,20.298C42.908,20.305 43.013,20.282 43.103,20.226L45.228,18.913L44.874,20.006C44.83,20.141 44.846,20.288 44.917,20.411C44.988,20.533 45.107,20.62 45.246,20.649C48.086,21.249 50.73,22.464 52.893,24.166C53.056,24.295 53.28,24.31 53.459,24.202C53.637,24.096 53.73,23.891 53.695,23.687C52.533,17.067 46.681,12.322 39.917,12.592C37.927,12.674 36.047,13.204 34.365,14.07L35.608,10.027L36.001,12.292C36.031,12.465 36.148,12.608 36.312,12.673C36.474,12.735 36.658,12.71 36.798,12.605C37.595,11.996 38.331,11.484 39.048,11.041C39.938,10.491 40.907,9.982 42.1,9.438C42.198,9.393 42.278,9.319 42.33,9.225L44.164,5.908L44.557,7.858C44.585,7.997 44.671,8.118 44.793,8.19C44.915,8.262 45.062,8.279 45.197,8.237C48.925,7.068 52.819,6.751 56.472,7.323C56.676,7.351 56.88,7.257 56.983,7.077C57.084,6.897 57.065,6.673 56.934,6.513Z" style="fill:rgb(157,194,34);fill-rule:nonzero;"/>
            </g>
        </g>
    </g>
    <g id="coconut-tree1" serif:id="coconut-tree" transform="matrix(2.84453,0,0,2.84453,1291.62,337.85)">
        <g transform="matrix(1,0,0,1,-28.7065,-28.7065)">
            <clipPath id="_clip9">
                <rect x="0" y="0" width="57.413" height="57.413"/>
            </clipPath>
            <g clip-path="url(#_clip9)">
                <path d="M56.934,6.513C53.548,2.374 48.531,0 43.169,0C39.887,0 36.669,0.916 33.862,2.65C30.386,4.797 27.9,8.002 26.568,11.621C25.518,8.431 23.3,5.636 20.161,3.96C18.221,2.925 16.041,2.377 13.857,2.377C9.534,2.377 5.451,4.471 2.935,7.976C2.814,8.145 2.81,8.37 2.923,8.543C3.036,8.716 3.245,8.799 3.448,8.756C6.131,8.162 9.047,8.214 11.863,8.905C11.999,8.939 12.146,8.914 12.263,8.833C12.38,8.754 12.458,8.628 12.477,8.487L12.632,7.349L13.976,9.454C14.034,9.544 14.119,9.613 14.219,9.651C15.134,10.001 15.878,10.333 16.562,10.699C17.122,10.998 17.692,11.344 18.307,11.755C18.452,11.853 18.639,11.867 18.796,11.793C18.955,11.719 19.063,11.568 19.082,11.394L19.212,10.204L20.371,13.27C20.399,13.345 20.446,13.413 20.506,13.466C22.244,15.019 23.666,16.845 24.695,18.815C22.103,15.88 18.321,14.062 14.279,14.062C13.499,14.062 12.711,14.128 11.936,14.26C5.096,15.423 0.125,21.528 0.375,28.464C0.382,28.672 0.517,28.853 0.713,28.919C0.766,28.938 0.82,28.946 0.875,28.946C1.021,28.946 1.163,28.883 1.259,28.766C3.085,26.573 5.507,24.767 8.261,23.544C8.39,23.486 8.49,23.377 8.533,23.242C8.576,23.107 8.561,22.96 8.491,22.837L7.871,21.762L10.356,22.653C10.456,22.689 10.567,22.692 10.669,22.661C11.638,22.368 12.461,22.169 13.257,22.033C13.899,21.924 14.587,21.845 15.36,21.792C15.534,21.78 15.69,21.678 15.77,21.522C15.85,21.366 15.843,21.18 15.752,21.031L15.063,19.907L18.024,21.725C18.092,21.767 18.17,21.792 18.251,21.798C20.688,21.97 23.039,22.578 25.154,23.56L18.935,56.821C18.908,56.967 18.947,57.118 19.042,57.232C19.137,57.346 19.278,57.413 19.427,57.413L32.644,57.413C32.651,57.412 32.657,57.412 32.664,57.413C32.94,57.413 33.164,57.189 33.164,56.913C33.164,56.848 33.151,56.785 33.129,56.728L31.638,40.902C31.625,40.762 31.554,40.635 31.443,40.55C31.331,40.465 31.19,40.433 31.051,40.456L28.055,41C28.769,40.036 29.914,38.499 31.129,36.894C31.204,36.794 31.24,36.669 31.228,36.545L30.005,23.567C31.644,22.452 33.495,21.577 35.478,21.007C35.555,20.985 35.626,20.944 35.685,20.889L38.06,18.629L37.66,19.758C37.601,19.923 37.634,20.107 37.744,20.241C37.855,20.377 38.03,20.44 38.202,20.42C38.944,20.315 39.608,20.251 40.233,20.226C41.038,20.191 41.827,20.216 42.799,20.298C42.908,20.305 43.013,20.282 43.103,20.226L45.228,18.913L44.874,20.006C44.83,20.141 44.846,20.288 44.917,20.411C44.988,20.533 45.107,20.62 45.246,20.649C48.086,21.249 50.73,22.464 52.893,24.166C53.056,24.295 53.28,24.31 53.459,24.202C53.637,24.096 53.73,23.891 53.695,23.687C52.533,17.067 46.681,12.322 39.917,12.592C37.927,12.674 36.047,13.204 34.365,14.07L35.608,10.027L36.001,12.292C36.031,12.465 36.148,12.608 36.312,12.673C36.474,12.735 36.658,12.71 36.798,12.605C37.595,11.996 38.331,11.484 39.048,11.041C39.938,10.491 40.907,9.982 42.1,9.438C42.198,9.393 42.278,9.319 42.33,9.225L44.164,5.908L44.557,7.858C44.585,7.997 44.671,8.118 44.793,8.19C44.915,8.262 45.062,8.279 45.197,8.237C48.925,7.068 52.819,6.751 56.472,7.323C56.676,7.351 56.88,7.257 56.983,7.077C57.084,6.897 57.065,6.673 56.934,6.513Z" style="fill:rgb(157,194,34);fill-rule:nonzero;"/>
            </g>
        </g>
    </g>
    <g id="coconut-tree2" serif:id="coconut-tree" transform="matrix(2.84453,0,0,2.84453,572.031,1666.38)">
        <g transform="matrix(1,0,0,1,-28.7065,-28.7065)">
            <clipPath id="_clip10">
                <rect x="0" y="0" width="57.413" height="57.413"/>
            </clipPath>
            <g clip-path="url(#_clip10)">
                <path d="M56.934,6.513C53.548,2.374 48.531,0 43.169,0C39.887,0 36.669,0.916 33.862,2.65C30.386,4.797 27.9,8.002 26.568,11.621C25.518,8.431 23.3,5.636 20.161,3.96C18.221,2.925 16.041,2.377 13.857,2.377C9.534,2.377 5.451,4.471 2.935,7.976C2.814,8.145 2.81,8.37 2.923,8.543C3.036,8.716 3.245,8.799 3.448,8.756C6.131,8.162 9.047,8.214 11.863,8.905C11.999,8.939 12.146,8.914 12.263,8.833C12.38,8.754 12.458,8.628 12.477,8.487L12.632,7.349L13.976,9.454C14.034,9.544 14.119,9.613 14.219,9.651C15.134,10.001 15.878,10.333 16.562,10.699C17.122,10.998 17.692,11.344 18.307,11.755C18.452,11.853 18.639,11.867 18.796,11.793C18.955,11.719 19.063,11.568 19.082,11.394L19.212,10.204L20.371,13.27C20.399,13.345 20.446,13.413 20.506,13.466C22.244,15.019 23.666,16.845 24.695,18.815C22.103,15.88 18.321,14.062 14.279,14.062C13.499,14.062 12.711,14.128 11.936,14.26C5.096,15.423 0.125,21.528 0.375,28.464C0.382,28.672 0.517,28.853 0.713,28.919C0.766,28.938 0.82,28.946 0.875,28.946C1.021,28.946 1.163,28.883 1.259,28.766C3.085,26.573 5.507,24.767 8.261,23.544C8.39,23.486 8.49,23.377 8.533,23.242C8.576,23.107 8.561,22.96 8.491,22.837L7.871,21.762L10.356,22.653C10.456,22.689 10.567,22.692 10.669,22.661C11.638,22.368 12.461,22.169 13.257,22.033C13.899,21.924 14.587,21.845 15.36,21.792C15.534,21.78 15.69,21.678 15.77,21.522C15.85,21.366 15.843,21.18 15.752,21.031L15.063,19.907L18.024,21.725C18.092,21.767 18.17,21.792 18.251,21.798C20.688,21.97 23.039,22.578 25.154,23.56L18.935,56.821C18.908,56.967 18.947,57.118 19.042,57.232C19.137,57.346 19.278,57.413 19.427,57.413L32.644,57.413C32.651,57.412 32.657,57.412 32.664,57.413C32.94,57.413 33.164,57.189 33.164,56.913C33.164,56.848 33.151,56.785 33.129,56.728L31.638,40.902C31.625,40.762 31.554,40.635 31.443,40.55C31.331,40.465 31.19,40.433 31.051,40.456L28.055,41C28.769,40.036 29.914,38.499 31.129,36.894C31.204,36.794 31.24,36.669 31.228,36.545L30.005,23.567C31.644,22.452 33.495,21.577 35.478,21.007C35.555,20.985 35.626,20.944 35.685,20.889L38.06,18.629L37.66,19.758C37.601,19.923 37.634,20.107 37.744,20.241C37.855,20.377 38.03,20.44 38.202,20.42C38.944,20.315 39.608,20.251 40.233,20.226C41.038,20.191 41.827,20.216 42.799,20.298C42.908,20.305 43.013,20.282 43.103,20.226L45.228,18.913L44.874,20.006C44.83,20.141 44.846,20.288 44.917,20.411C44.988,20.533 45.107,20.62 45.246,20.649C48.086,21.249 50.73,22.464 52.893,24.166C53.056,24.295 53.28,24.31 53.459,24.202C53.637,24.096 53.73,23.891 53.695,23.687C52.533,17.067 46.681,12.322 39.917,12.592C37.927,12.674 36.047,13.204 34.365,14.07L35.608,10.027L36.001,12.292C36.031,12.465 36.148,12.608 36.312,12.673C36.474,12.735 36.658,12.71 36.798,12.605C37.595,11.996 38.331,11.484 39.048,11.041C39.938,10.491 40.907,9.982 42.1,9.438C42.198,9.393 42.278,9.319 42.33,9.225L44.164,5.908L44.557,7.858C44.585,7.997 44.671,8.118 44.793,8.19C44.915,8.262 45.062,8.279 45.197,8.237C48.925,7.068 52.819,6.751 56.472,7.323C56.676,7.351 56.88,7.257 56.983,7.077C57.084,6.897 57.065,6.673 56.934,6.513Z" style="fill:rgb(157,194,34);fill-rule:nonzero;"/>
            </g>
        </g>
    </g>
    <g id="coconut-tree3" serif:id="coconut-tree" transform="matrix(2.84453,0,0,2.84453,1480.97,1666.38)">
        <g transform="matrix(1,0,0,1,-28.7065,-28.7065)">
            <clipPath id="_clip11">
                <rect x="0" y="0" width="57.413" height="57.413"/>
            </clipPath>
            <g clip-path="url(#_clip11)">
                <path d="M56.934,6.513C53.548,2.374 48.531,0 43.169,0C39.887,0 36.669,0.916 33.862,2.65C30.386,4.797 27.9,8.002 26.568,11.621C25.518,8.431 23.3,5.636 20.161,3.96C18.221,2.925 16.041,2.377 13.857,2.377C9.534,2.377 5.451,4.471 2.935,7.976C2.814,8.145 2.81,8.37 2.923,8.543C3.036,8.716 3.245,8.799 3.448,8.756C6.131,8.162 9.047,8.214 11.863,8.905C11.999,8.939 12.146,8.914 12.263,8.833C12.38,8.754 12.458,8.628 12.477,8.487L12.632,7.349L13.976,9.454C14.034,9.544 14.119,9.613 14.219,9.651C15.134,10.001 15.878,10.333 16.562,10.699C17.122,10.998 17.692,11.344 18.307,11.755C18.452,11.853 18.639,11.867 18.796,11.793C18.955,11.719 19.063,11.568 19.082,11.394L19.212,10.204L20.371,13.27C20.399,13.345 20.446,13.413 20.506,13.466C22.244,15.019 23.666,16.845 24.695,18.815C22.103,15.88 18.321,14.062 14.279,14.062C13.499,14.062 12.711,14.128 11.936,14.26C5.096,15.423 0.125,21.528 0.375,28.464C0.382,28.672 0.517,28.853 0.713,28.919C0.766,28.938 0.82,28.946 0.875,28.946C1.021,28.946 1.163,28.883 1.259,28.766C3.085,26.573 5.507,24.767 8.261,23.544C8.39,23.486 8.49,23.377 8.533,23.242C8.576,23.107 8.561,22.96 8.491,22.837L7.871,21.762L10.356,22.653C10.456,22.689 10.567,22.692 10.669,22.661C11.638,22.368 12.461,22.169 13.257,22.033C13.899,21.924 14.587,21.845 15.36,21.792C15.534,21.78 15.69,21.678 15.77,21.522C15.85,21.366 15.843,21.18 15.752,21.031L15.063,19.907L18.024,21.725C18.092,21.767 18.17,21.792 18.251,21.798C20.688,21.97 23.039,22.578 25.154,23.56L18.935,56.821C18.908,56.967 18.947,57.118 19.042,57.232C19.137,57.346 19.278,57.413 19.427,57.413L32.644,57.413C32.651,57.412 32.657,57.412 32.664,57.413C32.94,57.413 33.164,57.189 33.164,56.913C33.164,56.848 33.151,56.785 33.129,56.728L31.638,40.902C31.625,40.762 31.554,40.635 31.443,40.55C31.331,40.465 31.19,40.433 31.051,40.456L28.055,41C28.769,40.036 29.914,38.499 31.129,36.894C31.204,36.794 31.24,36.669 31.228,36.545L30.005,23.567C31.644,22.452 33.495,21.577 35.478,21.007C35.555,20.985 35.626,20.944 35.685,20.889L38.06,18.629L37.66,19.758C37.601,19.923 37.634,20.107 37.744,20.241C37.855,20.377 38.03,20.44 38.202,20.42C38.944,20.315 39.608,20.251 40.233,20.226C41.038,20.191 41.827,20.216 42.799,20.298C42.908,20.305 43.013,20.282 43.103,20.226L45.228,18.913L44.874,20.006C44.83,20.141 44.846,20.288 44.917,20.411C44.988,20.533 45.107,20.62 45.246,20.649C48.086,21.249 50.73,22.464 52.893,24.166C53.056,24.295 53.28,24.31 53.459,24.202C53.637,24.096 53.73,23.891 53.695,23.687C52.533,17.067 46.681,12.322 39.917,12.592C37.927,12.674 36.047,13.204 34.365,14.07L35.608,10.027L36.001,12.292C36.031,12.465 36.148,12.608 36.312,12.673C36.474,12.735 36.658,12.71 36.798,12.605C37.595,11.996 38.331,11.484 39.048,11.041C39.938,10.491 40.907,9.982 42.1,9.438C42.198,9.393 42.278,9.319 42.33,9.225L44.164,5.908L44.557,7.858C44.585,7.997 44.671,8.118 44.793,8.19C44.915,8.262 45.062,8.279 45.197,8.237C48.925,7.068 52.819,6.751 56.472,7.323C56.676,7.351 56.88,7.257 56.983,7.077C57.084,6.897 57.065,6.673 56.934,6.513Z" style="fill:rgb(157,194,34);fill-rule:nonzero;"/>
            </g>
        </g>
    </g>
    <g id="coconut-tree4" serif:id="coconut-tree" transform="matrix(2.84453,0,0,2.84453,1480.97,1666.38)">
        <g transform="matrix(1,0,0,1,-28.7065,-28.7065)">
            <clipPath id="_clip12">
                <rect x="0" y="0" width="57.413" height="57.413"/>
            </clipPath>
            <g clip-path="url(#_clip12)">
                <path d="M56.934,6.513C53.548,2.374 48.531,0 43.169,0C39.887,0 36.669,0.916 33.862,2.65C30.386,4.797 27.9,8.002 26.568,11.621C25.518,8.431 23.3,5.636 20.161,3.96C18.221,2.925 16.041,2.377 13.857,2.377C9.534,2.377 5.451,4.471 2.935,7.976C2.814,8.145 2.81,8.37 2.923,8.543C3.036,8.716 3.245,8.799 3.448,8.756C6.131,8.162 9.047,8.214 11.863,8.905C11.999,8.939 12.146,8.914 12.263,8.833C12.38,8.754 12.458,8.628 12.477,8.487L12.632,7.349L13.976,9.454C14.034,9.544 14.119,9.613 14.219,9.651C15.134,10.001 15.878,10.333 16.562,10.699C17.122,10.998 17.692,11.344 18.307,11.755C18.452,11.853 18.639,11.867 18.796,11.793C18.955,11.719 19.063,11.568 19.082,11.394L19.212,10.204L20.371,13.27C20.399,13.345 20.446,13.413 20.506,13.466C22.244,15.019 23.666,16.845 24.695,18.815C22.103,15.88 18.321,14.062 14.279,14.062C13.499,14.062 12.711,14.128 11.936,14.26C5.096,15.423 0.125,21.528 0.375,28.464C0.382,28.672 0.517,28.853 0.713,28.919C0.766,28.938 0.82,28.946 0.875,28.946C1.021,28.946 1.163,28.883 1.259,28.766C3.085,26.573 5.507,24.767 8.261,23.544C8.39,23.486 8.49,23.377 8.533,23.242C8.576,23.107 8.561,22.96 8.491,22.837L7.871,21.762L10.356,22.653C10.456,22.689 10.567,22.692 10.669,22.661C11.638,22.368 12.461,22.169 13.257,22.033C13.899,21.924 14.587,21.845 15.36,21.792C15.534,21.78 15.69,21.678 15.77,21.522C15.85,21.366 15.843,21.18 15.752,21.031L15.063,19.907L18.024,21.725C18.092,21.767 18.17,21.792 18.251,21.798C20.688,21.97 23.039,22.578 25.154,23.56L18.935,56.821C18.908,56.967 18.947,57.118 19.042,57.232C19.137,57.346 19.278,57.413 19.427,57.413L32.644,57.413C32.651,57.412 32.657,57.412 32.664,57.413C32.94,57.413 33.164,57.189 33.164,56.913C33.164,56.848 33.151,56.785 33.129,56.728L31.638,40.902C31.625,40.762 31.554,40.635 31.443,40.55C31.331,40.465 31.19,40.433 31.051,40.456L28.055,41C28.769,40.036 29.914,38.499 31.129,36.894C31.204,36.794 31.24,36.669 31.228,36.545L30.005,23.567C31.644,22.452 33.495,21.577 35.478,21.007C35.555,20.985 35.626,20.944 35.685,20.889L38.06,18.629L37.66,19.758C37.601,19.923 37.634,20.107 37.744,20.241C37.855,20.377 38.03,20.44 38.202,20.42C38.944,20.315 39.608,20.251 40.233,20.226C41.038,20.191 41.827,20.216 42.799,20.298C42.908,20.305 43.013,20.282 43.103,20.226L45.228,18.913L44.874,20.006C44.83,20.141 44.846,20.288 44.917,20.411C44.988,20.533 45.107,20.62 45.246,20.649C48.086,21.249 50.73,22.464 52.893,24.166C53.056,24.295 53.28,24.31 53.459,24.202C53.637,24.096 53.73,23.891 53.695,23.687C52.533,17.067 46.681,12.322 39.917,12.592C37.927,12.674 36.047,13.204 34.365,14.07L35.608,10.027L36.001,12.292C36.031,12.465 36.148,12.608 36.312,12.673C36.474,12.735 36.658,12.71 36.798,12.605C37.595,11.996 38.331,11.484 39.048,11.041C39.938,10.491 40.907,9.982 42.1,9.438C42.198,9.393 42.278,9.319 42.33,9.225L44.164,5.908L44.557,7.858C44.585,7.997 44.671,8.118 44.793,8.19C44.915,8.262 45.062,8.279 45.197,8.237C48.925,7.068 52.819,6.751 56.472,7.323C56.676,7.351 56.88,7.257 56.983,7.077C57.084,6.897 57.065,6.673 56.934,6.513Z" style="fill:rgb(157,194,34);fill-rule:nonzero;"/>
            </g>
        </g>
    </g>
</svg>
