<?xml version="1.0" encoding="UTF-8" standalone="no"?>
<!DOCTYPE svg PUBLIC "-//W3C//DTD SVG 1.1//EN" "http://www.w3.org/Graphics/SVG/1.1/DTD/svg11.dtd">
<svg width="100%" height="100%" viewBox="0 0 30 31" version="1.1" xmlns="http://www.w3.org/2000/svg" xmlns:xlink="http://www.w3.org/1999/xlink" xml:space="preserve" xmlns:serif="http://www.serif.com/" style="fill-rule:evenodd;clip-rule:evenodd;stroke-linecap:round;stroke-linejoin:round;stroke-miterlimit:1.5;">
    <g id="Artboard1" transform="matrix(0.239151,0,0,0.249594,7.69334,5.66096)">
        <rect x="-32.169" y="-22.681" width="123.867" height="121.438" style="fill:none;"/>
        <g transform="matrix(0.543539,0,0,0.36363,-466.788,-125.864)">
            <g transform="matrix(0.965926,-0.370684,0.258819,1.38341,687.136,73.2911)">
                <path d="M67.066,319.575C67.066,319.575 79.568,332.078 92.07,344.58C105.878,358.388 128.265,358.388 142.073,344.58C142.074,344.579 142.075,344.578 142.076,344.577C155.884,330.769 178.271,330.769 192.078,344.577C204.58,357.079 217.083,369.581 217.083,369.581" style="fill:none;stroke:rgb(58,0,214);stroke-width:15px;"/>
            </g>
            <g transform="matrix(0.965926,-0.370684,0.258819,1.38341,687.136,117.149)">
                <path d="M67.066,319.575C67.066,319.575 79.568,332.078 92.07,344.58C105.878,358.388 128.265,358.388 142.073,344.58C142.074,344.579 142.075,344.578 142.076,344.577C155.884,330.769 178.271,330.769 192.078,344.577C204.58,357.079 217.083,369.581 217.083,369.581" style="fill:none;stroke:rgb(58,0,214);stroke-width:15px;"/>
            </g>
            <g transform="matrix(1,0,0,1.43221,771.479,131.612)">
                <path d="M218.538,240.291L203.538,231.631L203.538,144.054L129.815,144.054L129.815,181.264L130.061,181.264L130.061,243.344C126.812,246.783 123.919,250.57 121.468,254.62C119.988,257.104 117.488,258.846 114.815,259.433L114.815,194.252L76.138,194.252L76.138,239.744C75.289,239.249 74.44,238.755 73.59,238.264C70.347,236.567 66.733,235.706 63.15,235.692L63.15,181.264L114.815,181.264L114.815,129.054L218.538,129.054L218.538,240.291Z" style="fill:rgb(58,0,214);fill-rule:nonzero;"/>
            </g>
            <g transform="matrix(1,0,0,1.43221,771.479,3.8104)">
                <path d="M194.44,247.74C194.44,246.582 193.499,245.641 192.341,245.641L153.872,245.641C152.713,245.641 151.772,246.582 151.772,247.74L151.772,251.939C151.772,253.097 152.713,254.038 153.872,254.038L192.341,254.038C193.499,254.038 194.44,253.097 194.44,251.939L194.44,247.74Z" style="fill:rgb(58,0,214);"/>
            </g>
            <g transform="matrix(1,0,0,1.43221,771.479,29.5793)">
                <path d="M194.44,247.74C194.44,246.582 193.499,245.641 192.341,245.641L153.872,245.641C152.713,245.641 151.772,246.582 151.772,247.74L151.772,251.939C151.772,253.097 152.713,254.038 153.872,254.038L192.341,254.038C193.499,254.038 194.44,253.097 194.44,251.939L194.44,247.74Z" style="fill:rgb(58,0,214);"/>
            </g>
            <g transform="matrix(0.256022,0,0,1.43221,868.629,29.5793)">
                <path d="M194.44,247.74C194.44,246.582 190.766,245.641 186.241,245.641L159.971,245.641C155.446,245.641 151.772,246.582 151.772,247.74L151.772,251.939C151.772,253.097 155.446,254.038 159.971,254.038L186.241,254.038C190.766,254.038 194.44,253.097 194.44,251.939L194.44,247.74Z" style="fill:rgb(58,0,214);"/>
            </g>
            <g transform="matrix(0.256022,0,0,1.43221,916.138,70.6384)">
                <path d="M194.44,247.74C194.44,246.582 190.766,245.641 186.241,245.641L159.971,245.641C155.446,245.641 151.772,246.582 151.772,247.74L151.772,251.939C151.772,253.097 155.446,254.038 159.971,254.038L186.241,254.038C190.766,254.038 194.44,253.097 194.44,251.939L194.44,247.74Z" style="fill:rgb(58,0,214);"/>
            </g>
            <g transform="matrix(0.137396,0,0,1.05411,856.096,173.931)">
                <path d="M194.44,247.633C194.44,246.534 189.66,245.641 183.773,245.641L162.439,245.641C156.552,245.641 151.772,246.534 151.772,247.633L151.772,252.046C151.772,253.145 156.552,254.038 162.439,254.038L183.773,254.038C189.66,254.038 194.44,253.145 194.44,252.046L194.44,247.633Z" style="fill:rgb(58,0,214);"/>
            </g>
            <g transform="matrix(0.369478,0,0,1.43221,851.41,51.9866)">
                <path d="M194.44,247.74C194.44,246.582 191.894,245.641 188.759,245.641L157.454,245.641C154.318,245.641 151.772,246.582 151.772,247.74L151.772,251.939C151.772,253.097 154.318,254.038 157.454,254.038L188.759,254.038C191.894,254.038 194.44,253.097 194.44,251.939L194.44,247.74Z" style="fill:rgb(58,0,214);"/>
            </g>
            <g transform="matrix(0.485944,0,0,1.43221,855.067,51.9866)">
                <path d="M194.44,247.74C194.44,246.582 192.504,245.641 190.12,245.641L156.092,245.641C153.708,245.641 151.772,246.582 151.772,247.74L151.772,251.939C151.772,253.097 153.708,254.038 156.092,254.038L190.12,254.038C192.504,254.038 194.44,253.097 194.44,251.939L194.44,247.74Z" style="fill:rgb(58,0,214);"/>
            </g>
            <g transform="matrix(0.253012,0,0,1.43221,916.123,51.9866)">
                <path d="M194.44,247.74C194.44,246.582 190.722,245.641 186.144,245.641L160.069,245.641C155.49,245.641 151.772,246.582 151.772,247.74L151.772,251.939C151.772,253.097 155.49,254.038 160.069,254.038L186.144,254.038C190.722,254.038 194.44,253.097 194.44,251.939L194.44,247.74Z" style="fill:rgb(58,0,214);"/>
            </g>
            <g transform="matrix(0.536657,0,0,1.05411,770.003,160.203)">
                <path d="M194.44,247.74C194.44,246.582 193.15,245.641 191.561,245.641L154.651,245.641C153.062,245.641 151.772,246.582 151.772,247.74L151.772,251.939C151.772,253.097 153.062,254.038 154.651,254.038L191.561,254.038C193.15,254.038 194.44,253.097 194.44,251.939L194.44,247.74Z" style="fill:rgb(58,0,214);"/>
            </g>
            <g transform="matrix(0.793175,0,0,1.43221,795.929,70.6384)">
                <path d="M194.44,247.74C194.44,246.582 193.254,245.641 191.794,245.641L154.419,245.641C152.958,245.641 151.772,246.582 151.772,247.74L151.772,251.939C151.772,253.097 152.958,254.038 154.419,254.038L191.794,254.038C193.254,254.038 194.44,253.097 194.44,251.939L194.44,247.74Z" style="fill:rgb(58,0,214);"/>
            </g>
            <g transform="matrix(0.425663,0,0,1.05411,791.585,173.931)">
                <path d="M194.44,247.74C194.44,246.582 192.814,245.641 190.811,245.641L155.402,245.641C153.399,245.641 151.772,246.582 151.772,247.74L151.772,251.939C151.772,253.097 153.399,254.038 155.402,254.038L190.811,254.038C192.814,254.038 194.44,253.097 194.44,251.939L194.44,247.74Z" style="fill:rgb(58,0,214);"/>
            </g>
            <g transform="matrix(0.425663,0,0,1.05411,800.045,186.938)">
                <path d="M194.44,247.74C194.44,246.582 192.814,245.641 190.811,245.641L155.402,245.641C153.399,245.641 151.772,246.582 151.772,247.74L151.772,251.939C151.772,253.097 153.399,254.038 155.402,254.038L190.811,254.038C192.814,254.038 194.44,253.097 194.44,251.939L194.44,247.74Z" style="fill:rgb(58,0,214);"/>
            </g>
        </g>
    </g>
</svg>
