<?xml version="1.0" encoding="UTF-8" standalone="no"?>
<!DOCTYPE svg PUBLIC "-//W3C//DTD SVG 1.1//EN" "http://www.w3.org/Graphics/SVG/1.1/DTD/svg11.dtd">
<svg width="100%" height="100%" viewBox="0 0 30 31" version="1.1" xmlns="http://www.w3.org/2000/svg" xmlns:xlink="http://www.w3.org/1999/xlink" xml:space="preserve" xmlns:serif="http://www.serif.com/" style="fill-rule:evenodd;clip-rule:evenodd;stroke-linejoin:round;stroke-miterlimit:1.41421;">
    <g id="Artboard1" transform="matrix(0.239151,0,0,0.249594,7.69334,5.66096)">
        <rect x="-32.169" y="-22.681" width="123.867" height="121.438" style="fill:none;"/>
        <g transform="matrix(1.6627,0,0,5.7342,-1566.43,-1429.93)">
            <g>
                <g transform="matrix(0.287724,0,0,0.0799381,902.191,240.714)">
                    <path d="M284.777,204.378C289.927,204.916 293.522,210.927 290.853,215.591C290.098,216.911 289.6,217.646 287.294,218.761C277.023,223.155 266.765,227.579 256.481,231.942C242.438,237.799 226.295,238.131 212.034,232.868C205.3,230.337 198.673,227.59 191.686,226.157C178.605,223.472 164.818,224.483 152.267,228.904L120.051,240.352C119.463,240.531 119.319,240.597 118.71,240.694C112.721,241.639 107.242,233.158 112.142,228.079C112.941,227.25 113.943,226.661 115.028,226.218L147.264,214.763C166.809,207.879 188.646,208.137 207.848,215.239C213.494,217.363 219.015,219.833 224.887,220.913C233.61,222.519 242.761,221.469 250.928,218.004L281.394,204.97C282.733,204.469 283.128,204.359 284.777,204.378Z" style="fill:rgb(58,0,214);fill-rule:nonzero;"/>
                </g>
                <g transform="matrix(0.287724,0,0,0.0799381,902.191,243.357)">
                    <path d="M284.777,204.378C287.325,204.644 288.042,205.166 289.202,206.152C292.978,209.362 292.243,216.368 287.294,218.761C273.663,224.593 260.164,232.045 246.469,235.16C235.088,237.748 222.979,236.906 212.035,232.868C205.3,230.337 198.673,227.59 191.686,226.157C178.604,223.472 164.818,224.483 152.267,228.904L120.051,240.352C114.371,242.08 108.184,236.19 110.625,230.38C111.254,228.885 112.37,227.615 113.773,226.8C114.306,226.49 114.459,226.451 115.028,226.218L147.264,214.763C166.809,207.879 188.646,208.137 207.848,215.239C213.494,217.363 219.015,219.833 224.887,220.913C233.61,222.519 242.76,221.469 250.928,218.004L281.394,204.97C282.733,204.469 283.128,204.359 284.777,204.378Z" style="fill:rgb(58,0,214);fill-rule:nonzero;"/>
                </g>
                <g transform="matrix(0.287724,0,0,0.0799381,900.073,238.06)">
                    <path d="M208.792,141.983C241.284,142.292 272.12,165.034 281.07,197.278C282.951,204.052 284.355,211.16 283.787,218.101C283.33,223.672 275.281,227.224 270.913,222.695C267.788,219.455 268.943,214.154 268.224,209.024C264.797,184.568 244.905,163.212 220.498,158.212C191.672,152.307 159.643,170.196 150.519,199.504C147.964,207.71 147.22,216.46 148.26,225C148.26,225 146.88,233.991 140.132,233.375C136.264,233.021 133.625,229.391 133.207,225.387C129.721,191.936 151.101,157.129 184.097,145.954C192.043,143.263 200.466,141.957 208.792,141.983Z" style="fill:rgb(58,0,214);fill-rule:nonzero;"/>
                </g>
            </g>
        </g>
    </g>
</svg>
