<?xml version="1.0" encoding="UTF-8" standalone="no"?>
<!DOCTYPE svg PUBLIC "-//W3C//DTD SVG 1.1//EN" "http://www.w3.org/Graphics/SVG/1.1/DTD/svg11.dtd">
<svg width="100%" height="100%" viewBox="0 0 30 31" version="1.1" xmlns="http://www.w3.org/2000/svg" xmlns:xlink="http://www.w3.org/1999/xlink" xml:space="preserve" xmlns:serif="http://www.serif.com/" style="fill-rule:evenodd;clip-rule:evenodd;stroke-linejoin:round;stroke-miterlimit:1.41421;">
    <g id="Artboard1" transform="matrix(0.239151,0,0,0.249594,7.69334,5.66096)">
        <rect x="-32.169" y="-22.681" width="123.867" height="121.438" style="fill:none;"/>
        <g transform="matrix(4.18146,0,0,4.01888,-3504.56,-1502.28)">
            <g transform="matrix(0.265259,0,0,0.264442,790.275,308.311)">
                <path d="M203.188,286.779L203.188,266.717C203.272,264.511 204.699,262.72 207.341,262.72C207.443,262.727 207.545,262.735 207.647,262.743C209.598,263.045 211.111,264.715 211.188,266.717L211.188,286.016C211.194,286.079 211.197,286.157 211.197,286.251C211.197,288.945 213.384,291.132 216.078,291.132C218.04,291.132 219.734,289.971 220.509,288.299C220.823,287.147 220.992,285.953 220.999,284.75L220.999,266.717C221.11,263.254 227.603,262.029 227.754,266.717L227.754,284.772C227.708,291.928 223.473,298.613 217.442,302.317C213.562,304.682 211.194,308.897 211.194,313.441C211.188,319.782 211.188,327.324 211.188,327.324C211.149,328.324 211.022,328.596 210.772,329.099C209.245,332.185 203.351,331.577 203.188,327.324C203.188,327.324 203.188,319.845 203.188,313.527C203.187,308.962 200.799,304.729 196.89,302.37C190.922,298.746 186.668,292.148 186.622,284.772L186.622,266.717C186.645,266.01 186.72,265.817 186.869,265.449C187.387,264.17 188.39,263.341 190.107,263.341C190.179,263.346 190.251,263.351 190.323,263.355C190.983,263.44 191.088,263.505 191.366,263.629C192.568,264.161 193.324,265.074 193.376,266.717C193.376,272.789 193.34,278.861 193.377,284.933C193.4,286.165 193.621,287.364 194.007,288.506C194.822,290.066 196.455,291.132 198.335,291.132C200.851,291.132 202.924,289.225 203.188,286.779Z" style="fill:rgb(58,0,214);fill-rule:nonzero;"/>
            </g>
            <g transform="matrix(0.265259,0,0,0.264442,790.275,306.629)">
                <path d="M196.799,318.174C196.8,319.429 196.175,320.601 195.133,321.301C194.092,322 192.77,322.135 191.608,321.66C191.608,321.66 191.607,321.659 191.606,321.659C174.309,314.587 163.29,294.69 166.599,276.186C169.902,257.718 186.851,242.686 206.391,242.252C206.745,242.246 207.099,242.244 207.454,242.245C226.337,242.423 244.091,256.958 247.682,275.679C250.239,289.007 245.718,303.474 235.987,312.976C232.177,316.695 227.62,319.584 222.682,321.551C221.534,321.992 220.243,321.84 219.23,321.144C218.216,320.448 217.61,319.297 217.61,318.068C217.576,317.908 217.576,317.75 217.576,317.595C217.576,316.077 218.489,314.707 219.89,314.121C230.32,309.653 238.405,299.683 240.068,288.333C242.762,269.952 227.813,250.694 207.832,250.25C207.546,250.246 207.259,250.244 206.972,250.245C191.868,250.387 177.682,261.883 174.631,276.78C171.589,291.628 180.562,307.578 194.536,313.892C195.9,314.489 196.781,315.837 196.781,317.326C196.799,317.599 196.799,317.883 196.799,318.174Z" style="fill:rgb(58,0,214);fill-rule:nonzero;"/>
            </g>
        </g>
    </g>
</svg>
