<?xml version="1.0" encoding="UTF-8" standalone="no"?>
<!DOCTYPE svg PUBLIC "-//W3C//DTD SVG 1.1//EN" "http://www.w3.org/Graphics/SVG/1.1/DTD/svg11.dtd">
<svg width="100%" height="100%" viewBox="0 0 30 31" version="1.1" xmlns="http://www.w3.org/2000/svg" xmlns:xlink="http://www.w3.org/1999/xlink" xml:space="preserve" xmlns:serif="http://www.serif.com/" style="fill-rule:evenodd;clip-rule:evenodd;stroke-linejoin:round;stroke-miterlimit:1.41421;">
    <g id="Artboard1" transform="matrix(0.239151,0,0,0.249594,7.69334,5.66096)">
        <rect x="-32.169" y="-22.681" width="123.867" height="121.438" style="fill:none;"/>
        <g transform="matrix(1.23112,0,0,0.823627,-1062.03,-356.149)">
            <g transform="matrix(1,0,0,1.43221,783.37,124.49)">
                <path d="M131.461,218.514C133.412,218.725 133.691,219.297 134.231,219.947C135.508,221.485 135.594,223.616 133.982,225.331L103.721,255.592C103.18,256.101 103.052,256.148 102.751,256.306C101.241,257.098 99.567,257.007 98.064,255.592L89.269,246.797C87.832,245.27 88.085,244.777 88.098,243.907C88.143,240.954 92.181,238.705 94.746,240.972C94.808,241.026 94.866,241.084 94.926,241.141L100.892,247.107L128.325,219.674C128.325,219.674 130.022,218.448 131.461,218.514Z" style="fill:rgb(58,0,214);fill-rule:nonzero;"/>
            </g>
            <g transform="matrix(0.801538,0,0,1.14798,788.995,201.345)">
                <path d="M118.23,201.723C124.901,201.799 133.891,203.839 130.749,209.998C129.142,213.148 124.533,212.211 120.906,211.85C104.536,210.223 88.163,224.025 88.104,241.535C88.104,241.535 87.329,245.659 84.249,246.378C80.634,247.222 77.893,243.631 78.213,238.84C79.525,219.166 97.014,201.909 117.677,201.722C117.861,201.722 118.045,201.722 118.23,201.723Z" style="fill:rgb(58,0,214);fill-rule:nonzero;"/>
            </g>
            <g transform="matrix(0.801538,0,0,1.14798,788.995,201.345)">
                <path d="M83.644,236.556C87.924,237.172 87.802,242.801 88.638,247.164C91.747,263.367 110.178,274.971 126.48,270.087C137.127,266.897 145.582,257.379 147.375,246.18C147.375,246.18 148.788,241.871 152.187,241.77C155.506,241.671 157.774,245.046 157.001,249.064C153.416,267.705 134.881,282.35 115.624,281.25C95.778,280.116 78.32,262.372 78.124,241.775C78.124,241.775 79.155,236.242 83.644,236.556Z" style="fill:rgb(58,0,214);fill-rule:nonzero;"/>
            </g>
        </g>
    </g>
</svg>
