<?xml version="1.0" encoding="UTF-8" standalone="no"?>
<!DOCTYPE svg PUBLIC "-//W3C//DTD SVG 1.1//EN" "http://www.w3.org/Graphics/SVG/1.1/DTD/svg11.dtd">
<svg width="100%" height="100%" viewBox="0 0 30 31" version="1.1" xmlns="http://www.w3.org/2000/svg" xmlns:xlink="http://www.w3.org/1999/xlink" xml:space="preserve" xmlns:serif="http://www.serif.com/" style="fill-rule:evenodd;clip-rule:evenodd;stroke-linejoin:round;stroke-miterlimit:1.41421;">
    <g id="Artboard1" transform="matrix(0.239151,0,0,0.249594,7.69334,5.66096)">
        <rect x="-32.169" y="-22.681" width="123.867" height="121.438" style="fill:none;"/>
        <g transform="matrix(0.634553,0,0,0.608002,-60.6746,-113.514)">
            <path d="M112.785,274.606L102.139,274.606C90.711,274.605 81.312,264.313 80.296,251.194C76.954,252.057 73.315,249.647 72.517,245.814C71.635,241.58 75.041,237.899 75.041,237.899C84.665,229.856 96.458,224.036 108.465,223.92C108.608,223.92 108.75,223.92 108.893,223.92C116.523,223.994 124.027,226.506 130.76,230.664C134.211,228.843 138.1,227.762 142.266,227.696C142.44,227.694 142.615,227.694 142.79,227.694C146.843,227.733 150.818,228.771 154.417,230.583C161.117,226.473 168.572,223.993 176.153,223.92C176.296,223.92 176.438,223.92 176.581,223.92C188.588,224.036 200.381,229.856 210.005,237.899C210.005,237.899 213.411,241.58 212.529,245.814C211.731,249.647 208.092,252.057 204.75,251.194C203.737,264.28 194.383,274.554 182.907,274.606L172.261,274.606C160.765,274.606 151.323,264.192 150.401,250.962L150.352,250.977L150.352,245.668C148.371,243.93 145.842,242.799 143.012,242.7C142.853,242.696 142.694,242.694 142.535,242.694C139.681,242.721 137.012,243.947 134.853,245.928L134.694,245.928L134.694,250.977L134.645,250.962C133.726,264.158 124.329,274.553 112.785,274.606ZM107.331,231.949C115.863,232.041 124.405,235.639 128.923,242.8C128.923,242.8 129.797,244.288 129.283,245.674C128.39,248.086 124.995,248.049 123.199,245.491C115.777,235.134 96.982,235.976 90.59,246.14C90.59,246.14 87.859,248.621 85.841,246.794C83.696,244.851 86.036,241.173 88.727,238.687C93.699,234.093 100.669,231.926 107.331,231.949ZM177.93,231.949C186.462,232.041 195.003,235.639 199.521,242.8C199.521,242.8 200.395,244.288 199.882,245.674C198.988,248.086 195.594,248.049 193.798,245.491C186.376,235.134 167.58,235.976 161.188,246.14C161.188,246.14 158.457,248.621 156.439,246.794C154.294,244.851 156.635,241.173 159.326,238.687C164.298,234.093 171.267,231.926 177.93,231.949Z" style="fill:rgb(58,0,214);"/>
        </g>
    </g>
</svg>
