<?xml version="1.0" encoding="UTF-8" standalone="no"?>
<!DOCTYPE svg PUBLIC "-//W3C//DTD SVG 1.1//EN" "http://www.w3.org/Graphics/SVG/1.1/DTD/svg11.dtd">
<svg width="100%" height="100%" viewBox="0 0 159 56" version="1.1" xmlns="http://www.w3.org/2000/svg" xmlns:xlink="http://www.w3.org/1999/xlink" xml:space="preserve" xmlns:serif="http://www.serif.com/" style="fill-rule:evenodd;clip-rule:evenodd;stroke-linejoin:round;stroke-miterlimit:1.41421;">
    <g transform="matrix(0.963802,0,0,0.963802,-837.237,-174.994)">
        <g id="Artboard1">
            <g>
                <g transform="matrix(0.175578,0,0,0.175578,786.027,-17.9334)">
                    <text x="846.077px" y="1284.12px" style="font-family:'BrandonGrotesque-Black', 'Brandon Grotesque', sans-serif;font-weight:500;font-size:151.706px;fill:rgb(45,0,165);">Z<tspan x="950.451px 1022.66px 1161.93px 1291.64px " y="1284.12px 1284.12px 1284.12px 1284.12px ">IHUA</tspan></text>
                </g>
                <g transform="matrix(0.157879,0,0,0.173414,801.318,9.20694)">
                    <text x="846.077px" y="1284.12px" style="font-family:'BrandonGrotesque-Regular', 'Brandon Grotesque', sans-serif;font-weight:390;font-size:151.706px;fill:rgb(45,0,165);">O<tspan x="964.56px 1044.81px 1128.55px 1222.76px 1283.45px 1377.96px " y="1284.12px 1284.12px 1284.12px 1284.12px 1284.12px 1284.12px ">FERTAS</tspan></text>
                </g>
                <g transform="matrix(0.0957055,0,0,0.0957055,820.986,168.748)">
                    <path d="M667.12,235.617L667.12,235.617L666.886,235.617C646.79,235.713 627.562,250.179 622.191,269.772C617.83,285.681 622.753,303.8 634.591,315.359C647.394,327.861 667.785,332.113 684.682,325.144C701.622,318.157 713.592,300.702 713.532,281.951C713.519,277.889 712.916,273.88 711.8,270.02L803.534,270.02C806.215,302.475 797.4,335.911 778.141,362.476C752.883,397.315 710.546,419.242 667.043,419.242C616.097,419.242 566.101,388.54 543.439,341.539C521.952,296.974 526.802,240.669 557.166,200.079C582.468,166.256 623.556,145.177 666.599,144.973L667.436,144.973L667.445,144.972L1069.69,144.972C1070.68,145.005 1071.67,145.037 1072.65,145.069C1095.45,147.315 1098.22,154.085 1103.77,160.413C1117.44,176.013 1118.35,201.336 1105.64,217.89C1104.04,219.983 1103.53,220.424 1101.73,222.347L684.609,639.358L780,639.358L780,639.403L978.151,639.403L978.151,639.245C983.92,639.219 989.696,638.138 995.112,635.904C1012.05,628.917 1024.02,611.463 1023.96,592.711C1023.89,568.91 1003.55,546.904 978.401,546.386C978.04,546.38 977.678,546.377 977.316,546.377C957.219,546.473 937.992,560.939 932.621,580.533C930.437,588.501 930.582,597.024 932.758,605L841.144,605C838.421,572.056 847.32,537.944 867.596,510.839C892.897,477.016 933.986,455.938 977.029,455.733C977.325,455.732 977.62,455.732 977.916,455.733C1034.58,456.002 1088.82,494.058 1107.4,548.904C1121.37,590.15 1114.26,637.804 1088.57,673.236C1063.41,707.943 1021.3,729.836 977.968,730.001L977.935,730.002L575.17,730.002C551.79,729.237 547.872,722.292 541.093,714.561C527.42,698.969 526.511,673.639 539.217,657.085C540.823,654.992 541.325,654.55 543.126,652.628L960.25,235.617L796.082,235.617L796.082,235.617L667.12,235.617Z" style="fill:rgb(58,0,214);fill-rule:nonzero;"/>
                </g>
                <g transform="matrix(0.19472,0,0,0.19472,-4.52904,-72.1307)">
                    <path d="M4622.96,1551.3L4622.96,1551.32L4720.35,1551.32L4720.35,1551.24C4723.19,1551.23 4726.03,1550.7 4728.69,1549.6C4737.02,1546.17 4742.9,1537.59 4742.87,1528.37C4742.83,1516.67 4732.84,1505.86 4720.48,1505.6C4720.3,1505.6 4720.12,1505.6 4719.94,1505.6C4710.07,1505.65 4700.62,1512.76 4697.98,1522.39C4696.9,1526.3 4696.97,1530.49 4698.04,1534.41L4653.02,1534.41C4651.68,1518.22 4656.05,1501.45 4666.02,1488.13C4678.45,1471.51 4698.65,1461.15 4719.8,1461.05C4719.95,1461.05 4720.09,1461.05 4720.24,1461.05C4748.09,1461.18 4774.75,1479.88 4783.88,1506.84C4790.74,1527.11 4787.25,1550.54 4774.63,1567.95C4762.26,1585.01 4741.56,1595.77 4720.26,1595.85L4720.25,1595.85L4531.55,1595.85L4576.07,1551.31L4576.08,1551.3L4622.96,1551.3Z" style="fill:url(#_Linear1);fill-rule:nonzero;"/>
                </g>
                <g transform="matrix(-0.19472,0,0,-0.19472,1803.92,493.367)">
                    <path d="M4622.96,1551.3L4622.96,1551.32L4720.35,1551.32L4720.35,1551.24C4723.19,1551.23 4726.03,1550.7 4728.69,1549.6C4737.02,1546.17 4742.9,1537.59 4742.87,1528.37C4742.83,1516.67 4732.84,1505.86 4720.48,1505.6C4720.3,1505.6 4720.12,1505.6 4719.94,1505.6C4710.07,1505.65 4700.62,1512.76 4697.98,1522.39C4696.9,1526.3 4696.97,1530.49 4698.04,1534.41L4653.02,1534.41C4651.68,1518.22 4656.05,1501.45 4666.02,1488.13C4678.45,1471.51 4698.65,1461.15 4719.8,1461.05C4719.95,1461.05 4720.09,1461.05 4720.24,1461.05C4748.09,1461.18 4774.75,1479.88 4783.88,1506.84C4790.74,1527.11 4787.25,1550.54 4774.63,1567.95C4762.26,1585.01 4741.56,1595.77 4720.26,1595.85L4720.25,1595.85L4531.55,1595.85L4576.07,1551.31L4576.08,1551.3L4622.96,1551.3Z" style="fill:url(#_Linear2);fill-rule:nonzero;"/>
                </g>
            </g>
        </g>
    </g>
    <defs>
        <linearGradient id="_Linear1" x1="0" y1="0" x2="1" y2="0" gradientUnits="userSpaceOnUse" gradientTransform="matrix(255.791,0,0,134.804,4531.55,1528.45)"><stop offset="0" style="stop-color:rgb(0,9,126);stop-opacity:1"/><stop offset="1" style="stop-color:rgb(58,0,214);stop-opacity:1"/></linearGradient>
        <linearGradient id="_Linear2" x1="0" y1="0" x2="1" y2="0" gradientUnits="userSpaceOnUse" gradientTransform="matrix(255.791,0,0,134.804,4531.55,1528.45)"><stop offset="0" style="stop-color:rgb(0,9,126);stop-opacity:1"/><stop offset="1" style="stop-color:rgb(58,0,214);stop-opacity:1"/></linearGradient>
    </defs>
</svg>
